<svg id="Layer_1" data-name="Layer 1" xmlns="http://www.w3.org/2000/svg" xmlns:xlink="http://www.w3.org/1999/xlink" viewBox="0 0 4500 2500"><defs><style>.cls-1,.cls-64{fill:none;}.cls-2{clip-path:url(#clip-path);}.cls-3{fill:#cfe5f7;}.cls-4{fill:#ecf4fc;}.cls-16,.cls-17,.cls-18,.cls-19,.cls-20,.cls-21,.cls-22,.cls-23,.cls-24,.cls-25,.cls-26,.cls-27,.cls-28,.cls-29,.cls-31,.cls-32,.cls-33,.cls-34,.cls-35,.cls-36,.cls-37,.cls-38,.cls-39,.cls-4,.cls-40,.cls-41,.cls-42,.cls-43,.cls-44,.cls-45,.cls-46,.cls-47,.cls-48,.cls-5,.cls-50,.cls-51,.cls-52,.cls-53,.cls-54,.cls-55,.cls-56,.cls-57,.cls-59,.cls-6,.cls-60,.cls-61,.cls-62,.cls-63,.cls-65,.cls-66,.cls-67,.cls-68,.cls-69,.cls-70,.cls-71,.cls-78,.cls-79{fill-rule:evenodd;}.cls-5{fill:#b8d8f3;}.cls-6{fill:#ebf4fc;}.cls-7{fill:#527694;}.cls-8{fill:#293789;}.cls-9{fill:#3c96dc;}.cls-10{fill:#ffc200;}.cls-11{fill:#85bde9;}.cls-12{fill:#2b468e;}.cls-13{fill:#ffd34a;}.cls-14,.cls-17{fill:#5ea2d7;}.cls-15,.cls-16{fill:#2c76b0;}.cls-18{fill:#14385a;}.cls-19{fill:#0f2942;}.cls-20{fill:url(#linear-gradient);}.cls-21{fill:#92d8f2;}.cls-22{fill:#fdcda1;}.cls-23{fill:url(#linear-gradient-2);}.cls-24{fill:url(#linear-gradient-3);}.cls-25{fill:#7393b1;}.cls-26{fill:#4b6a87;}.cls-27{fill:url(#linear-gradient-4);}.cls-28{fill:#54a8c7;}.cls-29{fill:url(#linear-gradient-5);}.cls-30{fill:#04504e;}.cls-31,.cls-49,.cls-62,.cls-63,.cls-78{fill:#fff;}.cls-32{fill:#eaeaea;}.cls-33{fill:url(#linear-gradient-6);}.cls-34{fill:url(#linear-gradient-7);}.cls-35{fill:url(#linear-gradient-8);}.cls-36{fill:#7e7e7e;}.cls-37{fill:#c8c8c8;}.cls-38{fill:url(#linear-gradient-9);}.cls-39{fill:url(#linear-gradient-10);}.cls-40{fill:#18232e;}.cls-41{fill:#06090c;}.cls-42{fill:#296391;}.cls-43{fill:#bddcf3;}.cls-44{fill:url(#linear-gradient-11);}.cls-45{fill:#d0e5f7;}.cls-46{fill:#1f588e;}.cls-47{fill:url(#linear-gradient-12);}.cls-48{fill:url(#linear-gradient-13);}.cls-50{fill:url(#linear-gradient-14);}.cls-51{fill:#0a0e13;}.cls-52{fill:#ffc18d;}.cls-53{fill:url(#linear-gradient-15);}.cls-54{fill:#ffc787;}.cls-55{fill:url(#linear-gradient-16);}.cls-56{fill:#22295c;}.cls-57{fill:url(#linear-gradient-17);}.cls-58{fill:#2d3679;}.cls-59{fill:#ffaf54;}.cls-60{fill:url(#linear-gradient-18);}.cls-61{fill:#3fa092;}.cls-61,.cls-62{fill-opacity:0.67;}.cls-63{fill-opacity:0.55;}.cls-64{stroke:#777b7f;stroke-linecap:square;stroke-miterlimit:1.58;stroke-opacity:0.57;stroke-width:1.66px;}.cls-65{fill:#b1d8d3;}.cls-66{fill:#ec6198;}.cls-67{fill:#e6337a;}.cls-68{fill:url(#linear-gradient-19);}.cls-69{fill:url(#linear-gradient-20);}.cls-70{fill:#e3bf28;}.cls-71{fill:#bfa122;}.cls-72{fill:#348579;}.cls-73{fill:#2a6c62;}.cls-74{fill:#255f56;}.cls-75{fill:#2a6b2a;}.cls-76{fill:#44ae9e;}.cls-77{fill:#62c2b3;}.cls-78{fill-opacity:0.68;}.cls-79{fill:#87adcb;}.cls-80,.cls-81,.cls-82{isolation:isolate;}.cls-80,.cls-82,.cls-83{font-size:68.52px;fill:#19436c;font-family:Arial-BoldMT, Arial;font-weight:700;}.cls-82{letter-spacing:-0.04em;}</style><clipPath id="clip-path"><rect class="cls-1" width="4500" height="2500"/></clipPath><linearGradient id="linear-gradient" x1="1296.84" y1="1796.3" x2="1298.01" y2="1796.3" gradientTransform="matrix(-61.22, -138.75, -138.75, 61.22, 329463.35, 71735.16)" gradientUnits="userSpaceOnUse"><stop offset="0" stop-color="#00a7e5" stop-opacity="0"/><stop offset="1" stop-color="#00a7e5"/></linearGradient><linearGradient id="linear-gradient-2" x1="1293.43" y1="1798.06" x2="1294.6" y2="1798.06" gradientTransform="matrix(14.61, -164.17, -164.17, -14.61, 277015.75, 239697.05)" gradientUnits="userSpaceOnUse"><stop offset="0" stop-color="#ed8d34" stop-opacity="0"/><stop offset="1" stop-color="#ed8d34"/></linearGradient><linearGradient id="linear-gradient-3" x1="1287.67" y1="1780.11" x2="1288.84" y2="1780.11" gradientTransform="matrix(-37.71, 138.4, 138.4, 37.71, -197007.95, -244331.86)" xlink:href="#linear-gradient-2"/><linearGradient id="linear-gradient-4" x1="1304" y1="1792.19" x2="1305.17" y2="1792.19" gradientTransform="matrix(-80.31, -59.39, -59.39, 80.31, 212030.07, -65264.81)" xlink:href="#linear-gradient"/><linearGradient id="linear-gradient-5" x1="1312.13" y1="1779.54" x2="1313.3" y2="1779.54" gradientTransform="matrix(-59.31, -2.43, -2.43, 59.31, 82734.95, -100905.95)" gradientUnits="userSpaceOnUse"><stop offset="0" stop-color="#00445d" stop-opacity="0"/><stop offset="1" stop-color="#00445d"/></linearGradient><linearGradient id="linear-gradient-6" x1="1281.67" y1="1801.56" x2="1282.84" y2="1801.56" gradientTransform="matrix(87.2, -46.14, -46.14, -87.2, -27775.07, 217818.77)" xlink:href="#linear-gradient-5"/><linearGradient id="linear-gradient-7" x1="1287.26" y1="1778.73" x2="1288.43" y2="1778.73" gradientTransform="matrix(-26.18, 116.38, 116.38, 26.18, -172319.44, -194834.08)" xlink:href="#linear-gradient"/><linearGradient id="linear-gradient-8" x1="1296.4" y1="1793.71" x2="1297.57" y2="1793.71" gradientTransform="matrix(-105.03, -154.2, -154.2, 105.03, 413774.06, 13070.88)" xlink:href="#linear-gradient"/><linearGradient id="linear-gradient-9" x1="1293.67" y1="1787.57" x2="1294.84" y2="1787.57" gradientTransform="matrix(-329.04, 18.83, 18.83, 329.04, 392854.23, -611703.21)" xlink:href="#linear-gradient-2"/><linearGradient id="linear-gradient-10" x1="1281.93" y1="1774.75" x2="1283.1" y2="1774.84" gradientTransform="matrix(-12.69, 73.87, 91.44, 7.59, -145187.99, -107309.51)" xlink:href="#linear-gradient-2"/><linearGradient id="linear-gradient-11" x1="1291.03" y1="1790.18" x2="1292.2" y2="1790.18" gradientTransform="matrix(-765.6, -844.04, -844.04, 765.6, 2501269.4, -279147.39)" gradientUnits="userSpaceOnUse"><stop offset="0" stop-color="#0f1228" stop-opacity="0"/><stop offset="1" stop-color="#0f1228"/></linearGradient><linearGradient id="linear-gradient-12" x1="1290.64" y1="1790.76" x2="1291.82" y2="1790.76" gradientTransform="matrix(-304.13, -1301.07, -1301.07, 304.13, 2723877.8, 1136152.13)" gradientUnits="userSpaceOnUse"><stop offset="0" stop-color="#fff" stop-opacity="0"/><stop offset="1" stop-color="#fff"/></linearGradient><linearGradient id="linear-gradient-13" x1="1292.74" y1="1791.96" x2="1293.92" y2="1791.96" gradientTransform="matrix(-181.86, -379.18, -379.18, 181.86, 916131.27, 165060.86)" xlink:href="#linear-gradient-11"/><linearGradient id="linear-gradient-14" x1="1290.89" y1="1790.07" x2="1292.06" y2="1790.07" gradientTransform="matrix(-1240.75, -743.84, -743.84, 1240.75, 2934713.82, -1259021.31)" xlink:href="#linear-gradient-11"/><linearGradient id="linear-gradient-15" x1="1286.14" y1="1782.15" x2="1287.31" y2="1782.15" gradientTransform="matrix(-6.22, 153.04, 153.04, 6.22, -263602.51, -206564.97)" gradientUnits="userSpaceOnUse"><stop offset="0" stop-color="#ea8735" stop-opacity="0"/><stop offset="1" stop-color="#ea8735"/></linearGradient><linearGradient id="linear-gradient-16" x1="1285.27" y1="1793.31" x2="1286.44" y2="1793.31" gradientTransform="matrix(228.78, -35.9, -35.9, -228.78, -228524.01, 457696.84)" xlink:href="#linear-gradient-15"/><linearGradient id="linear-gradient-17" x1="1278.94" y1="1781.61" x2="1280.11" y2="1781.61" gradientTransform="matrix(41.27, 90.82, 90.82, -41.27, -213362.93, -41463.82)" xlink:href="#linear-gradient-11"/><linearGradient id="linear-gradient-18" x1="1293.66" y1="1791.85" x2="1294.84" y2="1791.85" gradientTransform="matrix(-212.14, -277.57, -277.57, 212.14, 772497.72, -19670.56)" xlink:href="#linear-gradient-12"/><linearGradient id="linear-gradient-19" x1="1287.65" y1="1791.26" x2="1288.82" y2="1791.26" gradientTransform="matrix(563.2, 0, 0, -425.34, -724838.83, 763959.75)" xlink:href="#linear-gradient-12"/><linearGradient id="linear-gradient-20" x1="1293.1" y1="1792.58" x2="1294.27" y2="1792.58" gradientTransform="matrix(-175.26, -311.1, -311.1, 175.26, 784802.33, 90175.02)" xlink:href="#linear-gradient-12"/></defs><g id="c153"><rect class="cls-1" width="4500" height="2500"/><g class="cls-2"><rect class="cls-3" x="-27.49" y="-95.19" width="4594.86" height="2705.85"/><path class="cls-4" d="M1878.14-95.2c-4.28,1.75-8.54,3.49-12.83,5.29-250.62,104.76-431.2,276.41-594.1,486.53C985.76,764.83,537.22,1029.54,77,1083.85c-34.27,4.05-69.31,6.8-104.47,7.44V-95.2ZM4567.35,114.14c-323.11,157.76-724.89,286.11-992.51,270.3C3163,360.16,2873.61,45.62,2526.78-95.2H4567.35Z"/><path class="cls-5" d="M-222.49,1453.07c6.38-4.52,808.49-22.24,856.06-23.66,370.27-10.92,1505.53-109.63,1793.9,46.14,180.45,97.49-130,189-67.21,252,53.67,53.84,493.78,97.87,576.72,106.47,591.37,61.39,1192.64,112.52,1786.83,138.44,148.61,6.49,298.36,15.78,445.83,35.49,46.35,6.21,172.91-13.09,141.54,60.36-26,61-50.5,122.06-88.47,177.48-51.55,75.2-118.49,139.74-184,202.32-413,394.56-714.8,320.72-1238.41,305.28-277.26-8.18-554.14-28.17-831.49-35.49-338.4-8.93-677.05-14.87-1015.48-3.55-185.59,6.18-373.2,29.75-559,21.29-256-11.67-512.53-40.62-767.82-63.91C464.26,2657-8.63,2682.42-120.07,2533.36c-51.6-69,37.06-886.18,60.14-990.35"/><path class="cls-6" d="M4670.25,1108c-80,6.62-171.47-3.61-252.23-8.68-165.19-10.37-334,2.19-498.45,11.89-137.58,8.13-279.12,14.7-415.37,35.72-65.48,10.12-420.27,59.64-474.71,148.83-48.84,80,248.33,155,270,163.7,58.46,23.46,111.44,57.67,163.18,92.28,72.47,48.46-122.6,67.48-50.44,139.91,79.49,79.71,639.07,125.07,762.51,133.92,98.14,7,497.59,50.77,557.79-29.75,12.57-16.81,119-318.17,100.88-336.36-.78-.77-7.69,0-8.9,0-54.81,0-109.12-5.93-163.18-5.93-156.54,0-305.78-20.27-459.87-35.74-34.54-3.47-340.86-66.19-305.62-136.92,24.16-48.41,146.23-37.34,189.9-44.64,183.21-30.63,379.67-46.13,566.69-59.53,155.3-11.11,243.27-20.29,243.27-26.78"/><path class="cls-7" d="M3869.08,1330.34l65.27-22.49,67.91-12.57h37.58l147-51.59,85.05-5.29,71.87-29.11,94.94,5.29v115.76Z"/><path class="cls-7" d="M2404.06,1331.43l-76.26-41.09-79.34-23h-43.91l-171.79-94.26-99.37-9.67-84-53.17-95.14,47.79,1.71,173.36Z"/><path class="cls-7" d="M3102.84,1085.83l20.62-13.91,25.64-3.63,10-6.65,84.16-24.8,18.39-15.13,88.06-7.26,79.14,42.35,47.93,15.12,10,13.91Z"/><path class="cls-7" d="M2270.54,1564.54l18.75-11.69,23.31-3,9.12-5.6,76.52-20.84,16.72-12.71,80.06-6.1,72,35.59,43.57,12.71,9.12,11.69Z"/><rect class="cls-8" x="3023.97" y="199.53" width="74.47" height="18.07"/><rect class="cls-8" x="3014.24" y="217.6" width="93.93" height="22.78"/><path class="cls-9" d="M3108.17,240.38h-93.93l26.52,25.52h40.89Z"/><rect class="cls-9" x="2389.32" y="178.52" width="33.42" height="136.96"/><rect class="cls-9" x="2427.87" y="178.52" width="33.43" height="136.96"/><rect class="cls-9" x="2466.41" y="178.52" width="33.43" height="136.96"/><rect class="cls-10" x="2613.12" y="427.57" width="19.66" height="13.96"/><rect class="cls-10" x="2664.07" y="427.57" width="19.66" height="13.96"/><rect class="cls-11" x="2632.78" y="429.13" width="31.29" height="10.85"/><rect class="cls-10" x="2603.78" y="415.47" width="88.91" height="13.66"/><rect class="cls-11" x="2626.39" y="404.06" width="43.69" height="11.4"/><rect class="cls-9" x="2619.79" y="393.12" width="58.31" height="10.95"/><rect class="cls-8" x="2619.79" y="378.34" width="58.31" height="10.95"/><rect class="cls-9" x="2614.17" y="385.46" width="69.56" height="7.66"/><rect class="cls-10" x="2559.33" y="373.14" width="165.87" height="6.29"/><rect class="cls-11" x="2608.54" y="257.8" width="35.98" height="115.34"/><path class="cls-10" d="M2725.2,373.14h-80.69V257.8h51.08A21.38,21.38,0,0,1,2714.53,270c12.5,24.84,21.75,71.28,10.67,103.17"/><path class="cls-9" d="M2667.73,278.41v76.17a7.13,7.13,0,0,0,6.9,7.34h39.17a7.09,7.09,0,0,0,6.87-6.76c.6-8,1.27-21.22-.09-29.91-1.5-9.59-3.83-27-9.17-40.86-3.11-8.05-10.45-13.33-18.63-13.33h-18.16a7.13,7.13,0,0,0-6.89,7.35"/><path class="cls-12" d="M2651.87,294.86h6.68a3,3,0,0,0,2.92-3.12V274.17a3,3,0,0,0-2.92-3.11h-6.68a3,3,0,0,0-2.92,3.11v17.57a3,3,0,0,0,2.92,3.12"/><path class="cls-13" d="M2644.51,328.81h-70c-7,0-12.72,6.06-12.72,13.54v30.79h4.11V342.35a9.43,9.43,0,0,1,2.52-6.48,8.32,8.32,0,0,1,6.09-2.68h4.75v39.95h4.11V333.19h12.85v39.95h4.12V333.19h12.84v39.95h4.11V333.19h27.24Z"/><path class="cls-13" d="M2630.12,331v42.14h4.12V331"/><rect class="cls-13" x="2596.72" y="222.89" width="124.66" height="34.91"/><path class="cls-13" d="M2718.29,210.92h-4.11v21.13h755L3422,182.49H2781.2l-67,25.34v3.09h4.11l1.38,4.13,62.95-23.81h636l30.49,32H2722.4V210.92h-4.11l1.38,4.13Z"/><path class="cls-13" d="M2600.27,244.42h4.11V223.29H2373v49.57h164.42l67-25.35v-3.09h-4.11l-1.37-4.13-63,23.81H2381.17V232.05h215v12.37h4.11l-1.37-4.13Z"/><path class="cls-13" d="M2539.5,265.32l-39.89-40.81-5.7,6.32,39.9,40.8"/><path class="cls-13" d="M2459.7,271.64l39.91-40.81-5.7-6.32L2454,265.32"/><path class="cls-13" d="M2500.87,268.48V227.67h-8.22v40.81"/><path class="cls-13" d="M2461,268.48V227.67h-8.22v40.81"/><path class="cls-13" d="M2459.7,265.32l-39.89-40.81-5.7,6.32,39.9,40.8"/><path class="cls-13" d="M2379.91,271.64l39.9-40.81-5.7-6.32-39.9,40.81"/><path class="cls-13" d="M2421.07,268.48V227.67h-8.22v40.81"/><path class="cls-13" d="M2381.17,268.48V227.67H2373v40.81"/><path class="cls-13" d="M2571.59,253.19l-28-28.68-5.7,6.32,28,28.67"/><path class="cls-13" d="M2779.06,190l39.9,40.81,5.69-6.32-39.9-40.81"/><path class="cls-13" d="M2858.86,183.7,2819,224.51l5.7,6.32,39.9-40.81"/><path class="cls-13" d="M2817.7,186.86v40.81h8.22V186.86"/><path class="cls-13" d="M2857.59,186.86v40.81h8.23V186.86"/><path class="cls-13" d="M2858.86,190l39.9,40.81,5.69-6.32-39.89-40.81"/><path class="cls-13" d="M2938.66,183.7l-39.9,40.81,5.69,6.32,39.9-40.81"/><path class="cls-13" d="M2897.5,186.86v40.81h8.22V186.86"/><path class="cls-13" d="M2937.39,186.86v40.81h8.23V186.86"/><path class="cls-13" d="M2938.66,190l39.9,40.81,5.69-6.32-39.9-40.81"/><path class="cls-13" d="M3018.46,183.7l-39.9,40.81,5.69,6.32,39.9-40.81"/><path class="cls-13" d="M2977.29,186.86v40.81h8.23V186.86"/><path class="cls-9" d="M3017.19,186.86v40.81h8.22V186.86"/><path class="cls-9" d="M3018.46,190l39.9,40.81,5.69-6.32-39.9-40.81"/><path class="cls-9" d="M3098.26,183.7l-39.9,40.81,5.69,6.32L3104,190"/><path class="cls-9" d="M3057.09,186.86v40.81h8.22V186.86"/><path class="cls-9" d="M3097,186.86v40.81h8.23V186.86"/><path class="cls-13" d="M3098.26,190l39.9,40.81,5.69-6.32L3104,183.7"/><path class="cls-13" d="M3178.05,183.7l-39.9,40.81,5.7,6.32,39.9-40.81"/><path class="cls-13" d="M3136.89,186.86v40.81h8.23V186.86"/><path class="cls-13" d="M3176.79,186.86v40.81H3185V186.86"/><path class="cls-13" d="M3178.05,190l39.9,40.81,5.7-6.32-39.9-40.81"/><path class="cls-13" d="M3257.85,183.7,3218,224.51l5.7,6.32,39.9-40.81"/><path class="cls-13" d="M3216.69,186.86v40.81h8.22V186.86"/><path class="cls-13" d="M3256.59,186.86v40.81h8.22V186.86"/><path class="cls-13" d="M3257.85,190l39.9,40.81,5.7-6.32-39.9-40.81"/><path class="cls-13" d="M3337.65,183.7l-39.9,40.81,5.7,6.32,39.9-40.81"/><path class="cls-13" d="M3296.49,186.86v40.81h8.22V186.86"/><path class="cls-13" d="M3336.39,186.86v40.81h8.22V186.86"/><path class="cls-13" d="M3337.65,190l39.9,40.81,5.7-6.32-39.9-40.81"/><path class="cls-13" d="M3417.45,183.7l-39.9,40.81,5.7,6.32,39.9-40.81"/><path class="cls-13" d="M3376.29,186.86v40.81h8.22V186.86"/><path class="cls-13" d="M3416.19,186.86v40.81h8.22V186.86"/><path class="cls-13" d="M2676.12,536.62l-20-21.29,20-21.28-7.18-7.66-20,21.29-20-21.29-7.19,7.66,20,21.28-20,21.29,7.19,7.65L2649,523l20,21.28Z"/><path class="cls-13" d="M2676.12,494.05l-20-21.29,20-21.28-7.18-7.66-20,21.29-20-21.29-7.19,7.66,20,21.28-20,21.29,7.19,7.65,20-21.29,20,21.29Z"/><rect class="cls-13" x="2617.83" y="438.43" width="12.33" height="114.42"/><rect class="cls-13" x="2667.73" y="438.43" width="12.33" height="114.42"/><path class="cls-13" d="M2676.12,656.13l-20-21.29,20-21.28-7.18-7.66-20,21.29-20-21.29-7.19,7.66,20,21.29-20,21.28,7.19,7.66,20-21.29,20,21.29Z"/><path class="cls-13" d="M2676.12,613.55l-20-21.28,20-21.29-7.18-7.65-20,21.28-20-21.28-7.19,7.65,20,21.29-20,21.28,7.19,7.66,20-21.29,20,21.29Z"/><rect class="cls-13" x="2617.83" y="557.94" width="12.33" height="114.41"/><rect class="cls-13" x="2667.73" y="557.94" width="12.33" height="114.41"/><rect class="cls-13" x="2613.12" y="547.08" width="19.66" height="13.96"/><rect class="cls-13" x="2664.07" y="547.08" width="19.66" height="13.96"/><rect class="cls-13" x="2632.78" y="548.64" width="31.29" height="10.85"/><path class="cls-13" d="M2676.12,775.64l-20-21.29,20-21.28-7.18-7.66-20,21.29-20-21.29-7.19,7.66,20,21.28-20,21.29,7.19,7.65L2649,762l20,21.28Z"/><path class="cls-13" d="M2676.12,733.07l-20-21.29,20-21.29-7.18-7.65-20,21.28-20-21.28-7.19,7.65,20,21.29-20,21.29,7.19,7.65,20-21.29,20,21.29Z"/><rect class="cls-13" x="2617.83" y="677.44" width="12.33" height="114.42"/><rect class="cls-13" x="2667.73" y="677.44" width="12.33" height="114.42"/><rect class="cls-13" x="2613.12" y="666.59" width="19.66" height="13.96"/><rect class="cls-13" x="2664.07" y="666.59" width="19.66" height="13.96"/><rect class="cls-13" x="2632.78" y="668.14" width="31.29" height="10.85"/><path class="cls-13" d="M2676.12,895.15l-20-21.29,20-21.29-7.18-7.65-20,21.29-20-21.29-7.19,7.65,20,21.29-20,21.29,7.19,7.65,20-21.29,20,21.29Z"/><path class="cls-13" d="M2676.12,852.58l-20-21.29,20-21.29-7.18-7.65-20,21.28-20-21.28-7.19,7.65,20,21.29-20,21.29,7.19,7.65,20-21.29,20,21.29Z"/><rect class="cls-13" x="2617.83" y="796.95" width="12.33" height="114.41"/><rect class="cls-13" x="2667.73" y="796.95" width="12.33" height="114.41"/><rect class="cls-13" x="2613.12" y="786.1" width="19.66" height="13.96"/><rect class="cls-13" x="2664.07" y="786.1" width="19.66" height="13.96"/><rect class="cls-13" x="2632.78" y="787.65" width="31.29" height="10.85"/><path class="cls-13" d="M2676.12,1014.66l-20-21.29,20-21.28-7.18-7.66-20,21.29-20-21.29-7.19,7.66,20,21.28-20,21.29,7.19,7.65,20-21.29,20,21.29Z"/><path class="cls-13" d="M2676.12,972.09l-20-21.29,20-21.29-7.18-7.65-20,21.28-20-21.28-7.19,7.65,20,21.29-20,21.29,7.19,7.65,20-21.29,20,21.29Z"/><rect class="cls-13" x="2617.83" y="916.47" width="12.33" height="114.41"/><rect class="cls-13" x="2667.73" y="916.47" width="12.33" height="114.41"/><rect class="cls-13" x="2613.12" y="905.61" width="19.66" height="13.96"/><rect class="cls-13" x="2664.07" y="905.61" width="19.66" height="13.96"/><rect class="cls-13" x="2632.78" y="907.16" width="31.29" height="10.85"/><path class="cls-13" d="M2676.12,1134.17l-20-21.29,20-21.29-7.18-7.65-20,21.28-20-21.28-7.19,7.65,20,21.29-20,21.29,7.19,7.65,20-21.29,20,21.29Z"/><path class="cls-13" d="M2676.12,1091.59l-20-21.28,20-21.29-7.18-7.66-20,21.29-20-21.29-7.19,7.66,20,21.29-20,21.28,7.19,7.65,20-21.28,20,21.28Z"/><rect class="cls-13" x="2617.83" y="1035.97" width="12.33" height="114.42"/><rect class="cls-13" x="2667.73" y="1035.97" width="12.33" height="114.42"/><rect class="cls-13" x="2613.12" y="1025.12" width="19.66" height="13.96"/><rect class="cls-13" x="2664.07" y="1025.12" width="19.66" height="13.96"/><rect class="cls-13" x="2632.78" y="1026.67" width="31.29" height="10.85"/><path class="cls-13" d="M2676.12,1253.68l-20-21.29,20-21.29-7.18-7.65-20,21.28-20-21.28-7.19,7.65,20,21.29-20,21.29,7.19,7.65,20-21.29,20,21.29Z"/><path class="cls-13" d="M2676.12,1211.1l-20-21.28,20-21.29-7.18-7.65-20,21.28-20-21.28-7.19,7.65,20,21.29-20,21.28,7.19,7.66,20-21.29,20,21.29Z"/><rect class="cls-13" x="2617.83" y="1155.48" width="12.33" height="114.41"/><rect class="cls-13" x="2667.73" y="1155.48" width="12.33" height="114.41"/><rect class="cls-13" x="2613.12" y="1144.63" width="19.66" height="13.96"/><rect class="cls-13" x="2664.07" y="1144.63" width="19.66" height="13.96"/><rect class="cls-13" x="2632.78" y="1146.18" width="31.29" height="10.85"/><rect class="cls-14" x="3200.28" y="564" width="518.37" height="55.62"/><rect class="cls-15" x="3200.28" y="600.22" width="518.37" height="4.72"/><path class="cls-16" d="M3207.85,572.29l251.31-335.47,255.25,330.25a4.31,4.31,0,0,0,6.08.76,4.38,4.38,0,0,0,.79-6.11L3462.53,227a4.35,4.35,0,0,0-6.91.06l-254.71,340a4.34,4.34,0,1,0,6.94,5.22Z"/><path class="cls-16" d="M3058.7,785.42l.53,37.66,11.83-.16-.85-58.54-10.85.15-2.21-.47c-242.51-51.9-431.07-159.78-565-262.59l-.06-3.45-4.35.06C2327.33,374,2246.51,258.21,2246.51,258.21l-5.87-8.44-16.81,11.8,5.87,8.42s44.29,63.57,132.36,147.3l5.74,405.79,11.83-.16L2374,428.56c30.63,28.45,66.15,58.95,106.49,89.87l4.33,304.65,11.82-.16-4.19-295.41c32.43,24.34,67.85,48.83,106.24,72.72l3.15,222.85,11.83-.16-3-215.35c33.19,20.23,68.55,39.94,106.05,58.67l2.21,156.84,11.83-.16-2.15-150.79c33.66,16.42,68.93,32,105.9,46.49L2836,823.08l11.83-.16-1.42-99.71c33.91,12.87,69.11,24.81,105.73,35.5l.92,64.37,11.83-.16-.89-60.79q43.24,12.24,88.86,22.06Z"/><path class="cls-17" d="M3140.43,785.42l.54,37.66,11.83-.16-.86-58.54-10.85.15-2.21-.47c-242.5-51.9-431.07-159.78-565-262.59l-.07-3.45-4.35.06C2409.06,374,2328.24,258.21,2328.24,258.21l-5.86-8.44-16.82,11.8,5.87,8.42s44.29,63.57,132.36,147.3l5.74,405.79,11.83-.16-5.58-394.36c30.62,28.45,66.14,58.95,106.49,89.87l4.32,304.65,11.83-.16-4.2-295.41c32.43,24.34,67.85,48.83,106.24,72.72l3.16,222.85,11.82-.16-3-215.35c33.18,20.23,68.54,39.94,106,58.67l2.2,156.84,11.83-.16-2.14-150.79c33.65,16.42,68.92,32,105.89,46.49l1.48,104.46,11.83-.16-1.42-99.71c33.91,12.87,69.11,24.81,105.74,35.5l.91,64.37,11.83-.16-.88-60.79q43.25,12.24,88.85,22.06Z"/><rect class="cls-14" x="2299.09" y="788.42" width="15.2" height="25.21"/><rect class="cls-14" x="2285.44" y="784.5" width="42.51" height="5.2"/><path class="cls-15" d="M2328.74,789.52c0,.43-9.79.78-21.85.78S2285,790,2285,789.52s9.78-.79,21.85-.79,21.85.35,21.85.79"/><rect class="cls-15" x="2205.02" y="230.1" width="54.69" height="584.61"/><rect class="cls-14" x="2259.73" y="230.1" width="82.95" height="584.61"/><path class="cls-16" d="M2266.48,334.83l68.33-38.67v77.37Zm68.33-48.67-68.33,38.7V247.49Z"/><path class="cls-16" d="M2266.48,431.22l68.33-38.67v77.37Zm68.33-48.67-68.33,38.7V343.88Z"/><path class="cls-16" d="M2266.48,527.61l68.33-38.67v77.37Zm68.33-48.67-68.33,38.7V440.27Z"/><path class="cls-16" d="M2266.48,624l68.33-38.67V662.7Zm68.33-48.67L2266.48,614V536.66Z"/><path class="cls-16" d="M2266.48,720.39l68.33-38.67v77.37Zm68.33-48.67-68.33,38.7V633.05Z"/><path class="cls-16" d="M2334.81,768.11l-68.33,38.7V729.44Z"/><path class="cls-16" d="M3833.38,785.42l-.53,37.66-11.83-.16.85-58.54,10.85.15,2.21-.47c242.51-51.9,431.07-159.78,565-262.59L4400,498l4.36.06C4564.75,374,4645.57,258.21,4645.57,258.21l5.87-8.44,16.81,11.8-5.87,8.42S4618.1,333.56,4530,417.29l-5.74,405.79-11.82-.16L4518,428.56c-30.63,28.45-66.15,58.95-106.49,89.87l-4.32,304.65-11.83-.16,4.19-295.41c-32.42,24.34-67.85,48.83-106.24,72.72l-3.15,222.85-11.83-.16,3-215.35c-33.19,20.23-68.55,39.94-106,58.67l-2.21,156.84-11.83-.16,2.15-150.79c-33.66,16.42-68.93,32-105.9,46.49l-1.48,104.46-11.83-.16,1.42-99.71c-33.91,12.87-69.11,24.81-105.73,35.5l-.92,64.37-11.83-.16.89-60.79q-43.24,12.24-88.86,22.06Z"/><path class="cls-17" d="M3751.65,785.42l-.54,37.66-11.82-.16.85-58.54,10.85.15,2.21-.47c242.5-51.9,431.07-159.78,565-262.59l.06-3.45,4.35.06C4483,374,4563.84,258.21,4563.84,258.21l5.86-8.44,16.82,11.8-5.87,8.42s-44.29,63.57-132.36,147.3l-5.74,405.79-11.83-.16,5.59-394.36c-30.63,28.45-66.15,58.95-106.5,89.87l-4.32,304.65-11.83-.16,4.2-295.41c-32.43,24.34-67.85,48.83-106.24,72.72l-3.15,222.85-11.83-.16,3-215.35c-33.19,20.23-68.55,39.94-106.05,58.67l-2.21,156.84-11.83-.16,2.14-150.79c-33.65,16.42-68.92,32-105.89,46.49l-1.48,104.46-11.83-.16,1.42-99.71c-33.91,12.87-69.11,24.81-105.73,35.5l-.92,64.37-11.83-.16.89-60.79q-43.26,12.24-88.86,22.06Z"/><path class="cls-14" d="M2170.37,887.57v28.07l30.25,22.56h189.25L2418,915.12l.58-27.55Z"/><rect class="cls-14" x="2199.66" y="938.23" width="190.3" height="24.08"/><rect class="cls-14" x="2229.27" y="962.29" width="135.08" height="368.21"/><path class="cls-15" d="M2362.63,985.77c-3.82,0-111.91,80.25-111.91,80.25V1330.5h-21.44V962.29h135.07Z"/><path class="cls-15" d="M2170.39,915.63l247.62-.51L2390,938.2H2200.64Z"/><path class="cls-14" d="M2834.92,887.57v28.07l30.25,22.56h189.25l28.12-23.08.58-27.55Z"/><rect class="cls-14" x="2864.21" y="938.23" width="190.3" height="24.08"/><rect class="cls-14" x="2893.82" y="962.29" width="135.08" height="368.21"/><path class="cls-15" d="M3027.18,985.77c-3.82,0-111.91,80.25-111.91,80.25V1330.5h-21.44V962.29H3028.9Z"/><path class="cls-15" d="M2834.94,915.63l247.62-.51-28,23.08H2865.19Z"/><path class="cls-14" d="M3351.21,887.57v28.07l30.25,22.56h189.25l28.12-23.08.58-27.55Z"/><rect class="cls-14" x="3380.51" y="938.23" width="190.3" height="24.08"/><rect class="cls-14" x="3410.11" y="962.29" width="135.08" height="368.21"/><path class="cls-15" d="M3543.47,985.77c-3.82,0-111.91,80.25-111.91,80.25V1330.5h-21.44V962.29h135.07Z"/><path class="cls-15" d="M3351.23,915.63l247.62-.51-28,23.08H3381.48Z"/><rect class="cls-15" x="3158.54" y="873.95" width="559.97" height="14.87"/><rect class="cls-14" x="2600.34" y="788.42" width="15.2" height="25.21"/><rect class="cls-14" x="2586.69" y="784.5" width="42.51" height="5.2"/><path class="cls-15" d="M2630,789.52c0,.43-9.78.78-21.84.78s-21.85-.35-21.85-.78,9.78-.79,21.85-.79,21.84.35,21.84.79"/><rect class="cls-14" x="2901.59" y="788.42" width="15.2" height="25.21"/><rect class="cls-14" x="2887.93" y="784.5" width="42.51" height="5.2"/><path class="cls-15" d="M2931.23,789.52c0,.43-9.78.78-21.84.78s-21.85-.35-21.85-.78,9.78-.79,21.85-.79,21.84.35,21.84.79"/><rect class="cls-15" x="3180.93" y="863.38" width="36.24" height="13.64"/><rect class="cls-15" x="3180.95" y="824.24" width="16.76" height="13.64"/><rect class="cls-14" x="2006.91" y="813.74" width="1174.03" height="73.84"/><rect class="cls-15" x="2006.91" y="863.16" width="1174.03" height="9.52"/><path class="cls-14" d="M3866.91,887.57v28.07l30.26,22.56h189.25l28.11-23.08.58-27.55Z"/><rect class="cls-14" x="3896.21" y="938.23" width="190.3" height="24.08"/><rect class="cls-14" x="3925.82" y="962.29" width="135.08" height="368.21"/><path class="cls-15" d="M4059.17,985.77c-3.82,0-111.9,80.25-111.9,80.25V1330.5h-21.45V962.29H4060.9Z"/><path class="cls-15" d="M3866.94,915.63l247.62-.51-28.05,23.08H3897.19Z"/><path class="cls-14" d="M4366,887.57v28.07l30.26,22.56h189.25l28.11-23.08.58-27.55Z"/><rect class="cls-14" x="4395.3" y="938.23" width="190.3" height="24.08"/><rect class="cls-14" x="4424.91" y="962.29" width="135.08" height="368.21"/><path class="cls-15" d="M4558.26,985.77c-3.82,0-111.9,80.25-111.9,80.25V1330.5h-21.45V962.29H4560Z"/><path class="cls-15" d="M4366,915.63l247.62-.51-28,23.08H4396.28Z"/><rect class="cls-14" x="3995.64" y="788.42" width="15.2" height="25.21"/><rect class="cls-14" x="3981.98" y="784.5" width="42.51" height="5.2"/><path class="cls-15" d="M4025.28,789.52c0,.43-9.78.78-21.84.78s-21.85-.35-21.85-.78,9.78-.79,21.85-.79,21.84.35,21.84.79"/><rect class="cls-14" x="4256.25" y="788.42" width="15.2" height="25.21"/><rect class="cls-14" x="4242.6" y="784.5" width="42.51" height="5.2"/><path class="cls-15" d="M4285.89,789.52c0,.43-9.78.78-21.84.78s-21.85-.35-21.85-.78,9.78-.79,21.85-.79,21.84.35,21.84.79"/><rect class="cls-15" x="3674.4" y="863.38" width="36.24" height="13.64"/><rect class="cls-15" x="3687.67" y="824.24" width="16.76" height="13.64"/><rect class="cls-14" x="3703.45" y="813.74" width="1174.03" height="73.84"/><rect class="cls-15" x="3703.45" y="863.16" width="1174.03" height="9.52"/><path class="cls-18" d="M433.42,1525.94l66.25-22.17c7,16.51,9.22,37.85,20.77,51.82,22.54,27.27,95.84-6.54,126.87,6.16,17.8,7.29,7.61,58.81,24.89,67.07,21,10,42.87,18,63.88,28.1,6.18,3,12.46,5.77,18.77,8.44,2.84,1.21,11.38,3,8.42,3.87-37.12,11.33-121.94-23.39-166.47-26.11-29.18-1.79,13.67,19-8,35a101.49,101.49,0,0,1-12.8,8.3c-1.31.68-4.83.49-4.07,1.77.67,1.12,10.05-1.06,11.4-1.3,21.84-4,24.58-21,44.67-11.53.53.25,0,5.35-.07,5.74-.88,13.1-2.26,26.11,5.84,37.53,14.86,20.94,47.06,27.33,69,37.71,21.37,10.12,42.37,21,63.86,30.86,3.78,1.73,42,14.92,35.6,21.56-28.74,29.85-84,44.57-120.69,60.89-14.46,6.43-29,13.07-43.57,19.79-31-1-61.91-2.15-92.36-2.43-23.84-.22-108.67,1.25-125.82-18.22-2.74-3.1,5.7-78.06,6.23-86.23,2.49-38,.09-76.15,2.59-114.11,1.63-24.75,7.83-49.5,8.31-74.21C437.31,1573.22,432.34,1548.18,433.42,1525.94Z"/><path class="cls-19" d="M500.6,1555.7c-1.44-2.55.41-3,1.93-1,7,8.7,7.19,27.81,8.46,38.21,3.4,27.11,7.63,53.18,7.63,80.65,0,25.23-9.4,50.66-13.55,75.56-5,30.25-5.91,62.75-5.91,93.38,0,13.26-9.15,49.5,6.77,53.49,7.52,1.88,15-8.82,21.14-11.87,33-16.58,47.4-25.62,58.4-65.38,11.11-40.06,1.25-84.62,3.4-125.66,2.13-40.64,14.62-83.57,10.15-124-1.55-13.89-12-22.41-16.09-34.8"/><path class="cls-20" d="M718.39,1728.63c47,27.3,84.64,40.8,132.07,4.7,8.14-6.2,16.14-12.56,23.85-19.31s16.34-14.58,21.89-23.42c.47-.74,4.33-9.62,4.12-9.68-5.24-1.35-49.5,22.43-57.36,24.93-48.4,15.46-61.62,13.6-109.26,12.66"/><path class="cls-19" d="M749.9,1443.81c12,5.62,24,10.77,36.19,14.47,45.18,13.71,87.69,10.43,133.57,12.87l3.8,12.35c-1.14,5.64-2.39,11-3.17,15-46.67,17.08-92.21,37.14-134.09,64.43-26.17,17-60.87,48.2-94.89,47.58-22.57-.42-41.32-19.37-63.32-25.1-41.22-10.73-84.65-9.68-126.7-14.92-7.29-.91-15.64-2.89-22.86-.62-8.34,2.62-25,16.47-41.63,27.89.05-1.2.08-2.4.11-3.6.53-27.49-8.15-61.9-.43-87.91l26.8-21.27c38.67-15.51,78.55-14.21,119.19-19.14C638.28,1459.12,694.15,1451.61,749.9,1443.81Z"/><path class="cls-21" d="M719.56,1891.06c-2.07-7.68-4.63-15.31-8.4-22.1-3.38-6.08-14.53-7.71-15.34-14.66-2.87-24.56,33.7-28.42,23.65-74.3-1.63-7.4-7.31-16.08-7.54-23.6-.69-22,10.9-43,10.67-64.85-.12-11.82-8.22-22.57-7.92-33.62.2-7.53,6.17-18.45,5-25.08-1.37-8.06-9.42-15.88-9.31-24.15.36-25.89,13.25-50.72,15.93-76.24,2.67-25.31-5-50.58-2.6-76.21l18.72,4.09c21.11,35.76-6.13,84.7-12.17,122.76-2,12.37,1.68,24.4,2.16,36.7.46,12-3.82,23.12-1.85,35.32,1.7,10.6,8.29,19.78,7.9,30.7-.76,21.14-7.78,41.8-8.33,63.06-.43,16.45,8.45,31.82,5.93,47.94-2.64,16.85-17.51,34.82-18.87,46.93-1.21,10.81,12.36,13.32,16.79,20.71,1.72,2.89.79,14.6-1,26.53C728.53,1891,724,1891.06,719.56,1891.06Z"/><path class="cls-18" d="M385.6,1037.46C440,997.05,586.14,920.19,652.88,923.36c62,2.94,170.72,48.66,227.54,79.18,25.16,13.51,70.12,43.1,83.61,57.3,3,3.21,3.68,25,5.24,36.25,11.28,80.9,16.13,144.69,1.1,222.4-6.31,32.62-3.25,87-26.74,112.6-33.93,37-172.17-4.64-206.7-13.08-19.36-4.73-38.42-11.17-58-15-28.49-5.55-58.74-13.09-88-10.18-31.75,3.18-61.18,16.6-93.71,17.34-20.79.47-55.37,2.78-72.86-11.29-28.23-22.71-32.16-71.9-37.89-104.94-5.24-30.25-8-60.52-9.53-91.13C374.77,1159.76,369.31,1078.1,385.6,1037.46Z"/><path class="cls-22" d="M661.34,839.56s-9.73,61.18-13.06,78.92l64,177.92,40.45,39.78,43.44-39,33.5-93.13s-7.24-28.64-.61-52.79"/><path class="cls-23" d="M669,844.66l148.26,98.75.23,14.81a177.93,177.93,0,0,1-7.57,24.47c-12,30.18-40.17,31.45-67.77,25.48-6.87-1.49-12.77-3.69-18.39-8-.53-.41-8.48-7.92-9.7-7.06-5,3.51.7,15.62,2.37,19.75,5.9,14.53,11.06,29.31,16.78,43.91.91,2.3,7.29,14.1,5.69,16.72-.59,1-5-1.22-5.31-1.45-6-4.29-10.23-10.07-15-15.6-18-20.81-33.61-45.19-42.9-71.19-6.93-19.43-22-38.37-16.78-58.47C667.35,894.26,664.87,867.32,669,844.66Z"/><path class="cls-24" d="M737.45,1124.1a247,247,0,0,1,13.28-42.29c3.28-7.79,6.39-15.37,10.34-22.86,4.7-8.92,11.72-22.65,21.81-26.59,3.88-1.52,12.07-4.13,13.15,1.86,2,11.06-4.68,24.39-7.5,34.92-6.43,24-8.56,51.13-19.17,73.95"/><path class="cls-25" d="M697.7,1153.79c-2.83-23.45-15.94-69,13.56-82.51,4.24-1.94,9.74-4.68,14.6-4.53,15.41.47,15,26.72,16.09,37.11.33,3.27,1,6.52,1.47,9.78.24,1.81.69,15.32,1.5,15.9,3.35,2.43,10.4-13.28,11-14.39,7.34-14.13,7.89-34.58,26.84-37.31a13.14,13.14,0,0,1,8.81,1.35,17.61,17.61,0,0,1,7,7.94,64.77,64.77,0,0,1,5,15c3.45,18.85-4.48,34.6-11,51.85-7.73,20.48-16.56,41.07-27.26,60.19a138.62,138.62,0,0,1-17.92,24.7c-1.33,1.48-3.26,5.79-5.82,5.11-6.09-1.59-10-12.2-12.17-17.12-8-17.9-15.44-35.94-23.56-53.78-7.13-15.7-13.75-32.87-14.74-50.21"/><path class="cls-26" d="M695.86,1141.6c-4-24.5-9.56-58.87,15.4-70.32,4.24-1.94,9.74-4.68,14.6-4.53,15.41.47,15,26.72,16.09,37.11.33,3.27,1,6.52,1.47,9.78.24,1.81.69,15.32,1.5,15.9,3.35,2.43,10.4-13.28,11-14.39,7.34-14.13,7.89-34.58,26.84-37.31a13.14,13.14,0,0,1,8.81,1.35,17.61,17.61,0,0,1,7,7.94,64.77,64.77,0,0,1,5,15,53,53,0,0,1,.21,17.47c-1.3,3.93-2.54,7.39-3.55,10.13-1.88,5.07-6.45,20-13,20.79-1.17.16-4.9-10.32-5.15-10.92-2.15-5.22-9.42-31.71-14.42-33.52-5.56-2-8.43,6.29-10.1,10.06-3.34,7.49-9.9,33.69-18.16,35.51-.88.2-2.61-10.57-2.76-12-1.39-12.85-3.24-12.14-9.51-23.23-5.19-9.2-9.27-11.39-14.42-2.13-2.3,4.12-4.61,8.17-7.11,12.17C702.44,1131.6,699.12,1136.59,695.86,1141.6Zm-.58.9-.32.5-.33.51a100,100,0,0,1-3.55-20.6Z"/><path class="cls-26" d="M748.1,1127.64c-15.87,28.39-10.93,98.78-1.6,129.17.57,1.84.64-3.79.85-5.7.4-3.56.69-7.09,1.18-10.64a278.51,278.51,0,0,0,3-33.5c.15-8-1.94-16.1-2.42-24.14-1.58-26.71,1.58-53.73,13.54-77.79"/><path class="cls-27" d="M882.63,1039.68,893,1073.79l-30.06,15.48,28.46,45.79L755.61,1284.6l-17.48,53.92-12-5.28,32-93.94,92.27-178.41Z"/><path class="cls-19" d="M599.21,975l-10.55,40.34,29.46,9.58-10.38,47.86,135.84,190-81.73-192Z"/><path class="cls-19" d="M734.29,1308.85c26,.34,39.05-13.18,62.83-11.38,45.21,3.42,91.33,20.7,133.88-5.73,32.07-19.92,36.76-58.64,46.71-91.49.49-1.6,1-3.17,1.56-4.75a516.28,516.28,0,0,1-8.9,123c-6.31,32.62-3.25,87-26.74,112.6-33.93,37-172.17-4.64-206.7-13.08-19.36-4.73-38.42-11.17-58-15-28.49-5.55-58.74-13.09-88-10.18-31.75,3.18-61.18,16.6-93.71,17.34-20.79.47-55.37,2.78-72.86-11.29-7.23-5.81-12.86-13.36-17.34-21.92-11.53-62.65,11.14-177.85,17.28-232.74,2.72-24.28,5.21-79.91,15.31-76.44,48.32,16.6,49.91,107.61,50.26,147,.11,11.94-1.9,42,7,51.54,1.24,1.34,2.71.47,4.06-.3,12.64-7.25,18.7-23.47,36.62-13.62,15.46,8.49,27.3,21,44.06,28,20.86,8.74,98.65,22.91,136.51,27.21-.37,9.39.86,17.7,4.77,30,1.12,3.56,2.12,7.16,3.22,10.74.45,1.46.1,5.25,1.37,4.39,1.59-1.09,1.75-9.63,2-11.48C731.29,1330.28,732.5,1319.51,734.29,1308.85Z"/><path class="cls-18" d="M845.78,979.62c9.11,4.29,17.7,8.51,25.54,12.54l22.73,60.49-27.6,6.41,28.83,52.58-159.2,179.82-7.47,49.4-10.33-23.79,11-38.67C747.51,1238.06,827,1028.77,845.78,979.62Z"/><path class="cls-18" d="M634.68,920.47c8.5,32.36,31.49,117.36,46.1,146.94,18.22,36.84,68.75,161.85,68.75,161.85l-9.74,23.31S605.85,1055.1,598.88,1043.86c0,0,13.27-33.52,16.45-36.68s-29.65-10-29.65-10l18.68-70.59A220.68,220.68,0,0,1,634.68,920.47Z"/><path class="cls-28" d="M586.6,1520.22c2.18,4,4.79-4.84,5-6.1,2.37-11.31,6.26-22.06,9.43-33.15,3.91-13.67,6.52-27.28,9.19-41.23,2.32-12.11,4.77-24,4.82-36.39.06-11.66-2.34-25.62-16.21-26.89-4.93-.46-9.4,1.8-13.68,3.93-14.22,7.06-23.27,20.55-27.63,35.61-7.82,27-9.23,56.61,5.22,81.69,2.79,4.85,5.53,11,9.65,14.86s10.19,6.27,15.32,8.72"/><path class="cls-29" d="M587.18,1521c-5-2.35-10.68-4.65-14.74-8.45s-6.86-10-9.65-14.86c-14.45-25.08-13-54.66-5.22-81.69,4.36-15.06,13.41-28.55,27.63-35.61,4.28-2.13,8.75-4.39,13.68-3.93,13.87,1.27,16.27,15.23,16.21,26.89-.05,12.38-2.5,24.28-4.82,36.39-.64,3.35-1.28,6.67-1.93,10-6,3.92-12.75,13-15.25,16.23-4.79,6.22-7.74,13.09-7,21,.07.72,1,8.07,2.28,7.7,2.17-.6,3.24-4.4,5.6-4.8,1.57-.27-.21,3.19-.42,4.77-.52,3.94-1.66,8.82-.36,12.71a.94.94,0,0,0,.06.15c-.57,2.19-1.09,4.38-1.56,6.6-.21,1.05-2,7.3-3.91,7.12l-1.14-1a2.72,2.72,0,0,0,.58.78l.1,0,.25.11.17.09h0l0,0-.06,0A1,1,0,0,1,587.18,1521Z"/><path class="cls-22" d="M609.28,1380.29c-7.71,2.69-15.93,3.34-23.66,6.15-2.59.94-6.34,1.44-8.32,3.58-1.75,1.9-2.28,5-3.3,7.32-1.93,4.44-4,8.62-5.39,13.28-3.36,11.44-8.27,22.45-9.36,34.45a82.65,82.65,0,0,0,0,17.51c.69,5.6,2.56,11,4.15,16.38.52,1.76,1.17,5.26,2.71,6.5,2.69,2.18,8.75.68,11.69,0,11.44-2.57,21-8.33,31-14.23a163.82,163.82,0,0,1,15.63-7.81c2.4-1.09,6.53-2.22,8.09-4.59,2.35-3.57,2.31-9.45,2.57-13.53a87.51,87.51,0,0,0-5.53-37.27c-3.7-10-8.61-22.88-20-25.77"/><path class="cls-18" d="M621.41,1375.51c-7.9,2.54-10.9,2.6-18.22,7.25-22,14-22.92,23-31.55,48.78-2.55,7.61-8,17-7.85,25.33.16,9.83,7.49,19.78,10,29.23,2.63,9.94,4.59,19.41,10.3,28,1.17,1.76,5.38,6.49,3.64,8.55l-.18.22-.42.46c-4.3,4.55-12.6,6.74-18.09,9.23-8.68,3.92-22.47,11.38-32.55,10.22-7.27-.83-13.62-3.24-21.07-2.71-29.87,2.06-58.54,6.79-88.7,5.87-14.69-.45-28.77-4.32-43.48-5-16.29-.78-32.53-.32-48.76-2.39-4.37-.56-13.7,0-17.23-3.23-8.57-7.89-14-19.71-22.45-28.08-5.91-5.86-13.52-8-17.09-16.29-5.46-12.71-5.64-29.44-6.69-43.12-1.42-18.65-4.49-41.26-1.48-60,2.33-14.41,9-28.07,13.91-41.68,7.88-21.66,14.75-43.74,22-65.61,13.78-41.39,22.89-84.34,36.21-125.91,3.34-10.43,6.72-20.86,10-31.3,3-9.41,6.13-18.7,9.8-27.86q3.94-9.83,7.58-19.78c6.82-18.72,12.44-38.27,29.64-50,3.58-2.44,12-8.84,16.49-7.45,18.44,5.76,38.65,49.68,47.73,65.57,15.93,27.88,13.18,46.35,12.88,78.28-.4,42.42-5.09,84.4-9.92,126.48-1.05,9.12-3.43,21.08-1.5,30.41,1.16,5.65,6.15,8.27,6,14.48a80.88,80.88,0,0,1-4.54,23.59c-.93,2.67-5.75,4.49-5.57,7.54s11.82,3.27,13.56,3.29c14.17.11,28.05-4.2,42.17-5,9.89-.53,20,3.64,29.87,4.53C569,1369.65,598.64,1371.35,621.41,1375.51Z"/><path class="cls-19" d="M273.65,1476.5a30.77,30.77,0,0,0,14,7.6c18.49,4.36,43.44-1.85,62.69-1.87h16c1.86,0,5.79-1.85,5.58,0-1,8.87-14.12,14.07-14.7,21.34-.53,6.74,38.5,5.34,56.78.54,21.94-5.76,41.68-18.35,58.72-33,5.2-4.47,14.52-19.39,21.2-20.92,12-2.76,23.33,17.58,35.51,16.74,3.56-.25,6.83-33.88,11.06-44.36.8-2,1.43-7.23,2.9-5.69,5.34,5.57,2.7,69.85,17.52,92.25,1.08,1.62,10.3-5.65,16.18-10.39a57.51,57.51,0,0,0,6.91,15.43c1.17,1.76,5.38,6.49,3.64,8.55l-.18.22-.42.46c-4.3,4.55-12.6,6.74-18.09,9.23-8.68,3.92-22.47,11.38-32.55,10.22-7.27-.83-13.62-3.24-21.07-2.71-29.87,2.06-58.54,6.79-88.7,5.87-14.69-.45-28.77-4.32-43.48-5-16.29-.78-32.53-.32-48.76-2.39-4.37-.56-13.7,0-17.23-3.23-8.57-7.89-14-19.71-22.45-28.08-5.91-5.86-13.52-8-17.09-16.29A64.59,64.59,0,0,1,273.65,1476.5Z"/><path class="cls-19" d="M594.29,1378.81c-7.34,3.19-13.72,8.55-20.25,13.07-6.91,4.79-14,8.19-18.4,15.83-3.1,5.37-3.59,12.08-3.91,18.13-.86,15.64,1.4,29.53,5.11,44.61,1.73,7,1.86,14.83,4.64,21.58,0,.09.23-2.22.23-2.26.07-1.1.12-2.71.12-3.65,0-3.29-.31-6.63-.53-9.92-.63-9.26-2-18.51-1.84-27.82.32-16.53,8.65-31.28,17.84-44.67,2.79-4.07,6.77-7.41,9.83-11.29,3.19-4.05,5.9-8.63,9-12.79"/><path class="cls-19" d="M425,1024.53c15.38,14.11,30.43,46.25,37.91,59.35,15.93,27.88,13.18,46.35,12.88,78.28-.4,42.42-5.09,84.4-9.92,126.48-1.05,9.12-3.43,21.08-1.5,30.41,1.16,5.65,6.15,8.27,6,14.48a80.88,80.88,0,0,1-4.54,23.59,5.41,5.41,0,0,1-1.41,2c-.55-4.19-.93-8.38-1.69-12.54-2-11.15-7.52-21.24-10.45-32.17-4.31-16.11-31.89-17.13-35.1-33.79-1.36-7,5.6-17.69,7.67-24.35,8.8-28.35,28.59-49.64,34.1-79.76,8-43.68.88-83.69-17.5-123.66-4.59-10-13.67-17.66-17.65-27.55Z"/><path class="cls-19" d="M461.81,1366.3l-12.3,1.47c-20.44,2.35-41,3.23-61.43,5.8-11.8,1.49-23,4.86-34.43,7.94q-5.76,1.54-11.47,3.26c-1.87.56-1.61.49-3.35,1.08-.69.23-2.38,1.33-2.09.66,2.15-4.91,14.16-7.74,18.62-9.5,18.47-7.29,37.16-10.69,57-12.23,7-.54,14-1.69,21.08-2.09.64,0,6-.06,6.17-.72.8-2.5-1.77-5.23-2.09-7.66-.46-3.57,5.28-.7,4.2-4.53-3-10.71-16.51-15.09-20.5-23.36-.45-.92,2,.34,3,.65,2.38.8,4.72,1.75,7,2.71a177.92,177.92,0,0,1,20.08,10.46c2.08,1.2,5.85,6.7,7.59,7.18,2.72.76,6.69-1.28,10.25-2.54a86.66,86.66,0,0,1-3.26,12.24c-.93,2.67-5.75,4.49-5.57,7.54C460.38,1365.34,460.94,1365.87,461.81,1366.3Z"/><path class="cls-19" d="M428.6,1349.5c-4.05-1.43-7.8-3.6-11.87-4.93-7.62-2.47-16.23-3-24.17-3.54-.69,0-1.37-.12-2.06-.14-2.77-.11-5.6-.18-8.37-.11-.21,0-2.11-.06-2.24.27-.29.74,1.48,2.43,1.8,2.79,2.49,2.76,5.5,4.16,8.87,5.59.28.12,3.45,1.22,3.39,1.72-.14,1.12-3,1.87-3.81,2.11-3.67,1-7.46,1.51-11.15,2.46a29.41,29.41,0,0,0-3.89,1.26c-.61.24-2.37.37-1.83.74.84.56,2.71.2,3.64.11a68.35,68.35,0,0,0,9.3-1.65,135.6,135.6,0,0,1,28.48-3.88c3.87,0,7.75,0,11.62,0,1.15,0,3.31.46,4.41,0"/><path class="cls-19" d="M458.91,1331.64c-3.45-2.34-6.74-4.92-10-7.56a69.77,69.77,0,0,0-5.66-4.64,44.55,44.55,0,0,0-5-2.86c-.45-.23-5.71-2.93-6.12-2.37-1.26,1.69,5.49,6.49,6.18,7.06,1.49,1.21,3,2.43,4.49,3.63,1.32,1,2.6,2.14,3.85,3.25.95.84,1.86,1.71,2.8,2.55,1.8,1.57,12.38,12.4,10.93,4.08"/><g id="path468"><path class="cls-30" d="M727.93,1254.76c-.31.12-5.85,2.29-5.81,5.38,0,2.29,16.33,45.83,16.33,45.83a1.74,1.74,0,0,0,2.25.4,1.77,1.77,0,0,0,.78-2.17s-16.67-42.08-15.92-43.42,2.88-1.72,3.22-1.73-.85-4.29-.85-4.29"/></g><g id="path480"><path class="cls-30" d="M780.71,1393.17l10.36-3.94-33-87.41-10.36,3.93,33,87.42"/></g><g id="path488"><path class="cls-30" d="M745.38,1306.65l14.7-5.58-20-53a4.32,4.32,0,0,0-5.58-2.53l-6.6,2.51a4.34,4.34,0,0,0-2.52,5.6l20,53"/></g><path class="cls-31" d="M609.11,1379.43c37.26-7.39,72.09-26.1,106.75-40.9,9.9-4.22,21.35-11.37,32.44-11.79,10.23-.4,21.24,5.67,30.29,9.59,9.71,4.2,19.82,7.77,29.19,12.69,3.43,1.81,7.91,3.39,10.61,6.28,2.24,2.41,3.19,5.66,4.74,8.49A228.93,228.93,0,0,0,838.22,1387c2.83,4,7,7.08,3.12,11.71-5.13,6.17-13.93,9.18-21,12.43-21.69,10-40.23,12-61.68,19.29-19,6.48-37.16,15.57-55.7,23.32-6.69,2.8-14.15,7.44-21.39,8.61-10.85,1.74-22.25-3.4-33.34-3.08-7.82.23-14.24,7.27-22,8-2.42.23-7.84,2-10.27,1.14-6.2-2.12-12.36-16.53-14.54-22.12-1.67-4.28-2.34-8.84-3-13.36a74.43,74.43,0,0,1-.13-19C599.52,1402.33,605.48,1390.37,609.11,1379.43Z"/><path class="cls-32" d="M603.72,1452.81a71.72,71.72,0,0,0,18.8-1.59c3.08-.71,9-1.21,10.32-4.7,2.45-6.4-1.53-15.68-2.34-22.16-.22-1.73-1.46-7.34,1.08-8.18,1.83-.61,3.45,3.82,3.89,4.86,2.19,5.27,3.85,11.86,8.47,15.6,11.23,9.1,23.39,6.51,37,4,23.19-4.29,45.52-11.69,68.36-17.39,4.73-1.18,18.79-11.19,20.23-4.58.61,2.76-.52,5.85-2,8.52-3.08.89-6.22,1.86-9.41,3-19,6.48-37.17,15.58-55.7,23.32-6.69,2.81-14.15,7.45-21.39,8.61-10.85,1.75-22.25-3.39-33.34-3.07-7.82.23-14.24,7.27-22,8-2.42.23-7.84,2-10.27,1.14C611,1466.63,606.66,1459.11,603.72,1452.81Z"/><path class="cls-32" d="M826.2,1398.25c-10.61-6.3-22.08-10.93-32.26-18-6.34-4.41-13.59-6.87-20.76-9.6-3.86-1.48-7.81-2.83-11.62-4.45-2-.85-14.5-6.15-16.94-5.31-1.7.58-.4,3.41.21,4.14a18,18,0,0,0,9.13,5.27c10.13,2.86,20.1,4.77,29.51,9.83,9.23,5,17.8,14.49,28,20.28,7,4,11.89,6.62,19.93,3.68"/><path class="cls-32" d="M767.45,1395.13a112,112,0,0,0-30.31-6.94c-1.88-.15-8.94,3.27-7.2,5.61,2.29,3.1,8.28,2.64,11.59,2.86,8.64.54,17.06,1,25.6,2.47"/><path class="cls-28" d="M898.22,1601.71c-5.59-1.72-11.06-7.7-14.63-12-7.87-9.6-14.65-20.49-21.13-31.08-1.37-2.24-10.11-14.88-7.72-17.64,4.66-5.38,16.54-7.54,22.91-9.6,17.38-5.63,34.46-25.22,52.73-26.06,5.64-.26,15.68,13.17,21.26,14.84,2.46.74,2.42,5.65,2.35,7.49-.28,7.6-2.45,15.37-4.68,22.58-5.32,17.25-14,28.74-28.06,39.77-6.12,4.8-13,9.85-21,10.21"/><path class="cls-33" d="M868.09,1567.67c-1.91-3-3.78-6.07-5.63-9.09-1.37-2.24-10.11-14.88-7.72-17.64,4.66-5.38,16.54-7.54,22.91-9.6,17.38-5.63,34.46-25.22,52.73-26.06,5.64-.26,15.68,13.17,21.26,14.84,2.46.74,2.42,5.65,2.35,7.49-.28,7.6-2.45,15.37-4.68,22.58-5.32,17.25-14,28.74-28.06,39.77-2.16,1.69-4.41,3.42-6.78,5a14.92,14.92,0,0,1-1.54-1.18c-7.53-6.83-13.4-16.13-20.29-23.58-1.25-1.36-8.19-8.26-10.45-5.4-.57.72,2,4.93,2.44,5.86,1.9,4.05,7.31,11.5,5.58,16-.39,1-1.84-1.06-2.71-1.66-2.39-1.68-4.78-3.37-7-5.23C876,1576.05,872.25,1571.65,868.09,1567.67Z"/><path class="cls-21" d="M899.46,1491.68c6.18-7.77,15.16-19.39,24.63-23,10.88-4.2,25,1.44,35.7,3.6,22.43,4.53,46,6.85,67.78,14,4.79,1.58,8.49-.14,12.89.87,7.17,1.64,14.76,8,20,12.91,2.72,2.56,8.36,6.9,7.75,11.11-1.58,10.84-9.5,22.31-13.49,32.49-5.12,13-12.89,24.61-18.9,37.17-1.95,4.08-2.35,12-5.84,15-3.88,3.39-11.52,3.16-16.31,4.28-11,2.56-31.22,10.85-42.19,9.91-5.59-.48-9.83-5.63-15.49-5.47-6.16.16-11.69,3.89-17.69,4.92-14.92,2.55-29.6-.47-43-7.77-.34-.19,6.57-7.22,12.39-12,8.53-7,21.75-17.22,25.66-28.11,1.77-4.93,9-13.85,9.41-19,1.66-19.38,3.92-42.38-29.89-29.51"/><path class="cls-34" d="M918.49,1580.73c4.8,1.26,9.53,2,13.82.39,8.41-3.19,35.08-27.35,37.42-27,4.44.65,27.8,27.55,39.26,27.53,7.35,0,23-10.06,37.27-20.36-3.53,6.48-7.22,12.87-10.42,19.55-1.95,4.08-2.35,12-5.84,15-3.88,3.39-11.52,3.16-16.31,4.28-11,2.56-31.22,10.85-42.19,9.91-5.59-.48-9.83-5.63-15.49-5.47-6.16.16-11.69,3.89-17.69,4.92-14.92,2.55-29.6-.47-43-7.77-.34-.19,6.57-7.22,12.39-12C910.9,1587.15,914.73,1584.1,918.49,1580.73Z"/><path class="cls-35" d="M923.14,1469l1-.39c10.88-4.2,25,1.44,35.7,3.6,22.43,4.53,46,6.85,67.78,14a14.16,14.16,0,0,0,3.46.67c1.43,1.34,2.65,2.64,2.3,2.89-1,.66-11.9-2.75-13.5-3.22-10.36-3-22-4.07-32.74-5.18-3.16-.32-8.7-1-11.25,1.61-.47.5,1.3.52,2,.7,1.33.37,2.64.8,4,1.26,4.18,1.47,8.59,2.43,12.86,3.65,15.74,4.48,31.2,10.15,47,14.18,3.52.9,7.08,1.68,10.18,3.68.56.36,3.86,2.19,3.24,3.45-.2.43-3.06-.28-3.4-.34-4.18-.69-8.18-2.18-12.24-3.35-15.21-4.35-29.29-10.2-45-12.34-2.39-.32-13.92-3.12-14.18,1.64-.12,2,8.31,6.91,9.57,8,5.18,4.4,17.69,17.29,17.78,24.18,0,.93-1.53-1-2.23-1.64-1.47-1.21-2.86-2.52-4.31-3.75-4.57-3.91-9-7.94-13.49-11.94-13.53-12.05-28.32-21.63-42.62-32.6-5.84-4.49-13.87-12.74-21.2-5.38Z"/><path class="cls-18" d="M807.57,1506l-193.76,17a4.12,4.12,0,0,1-3.1-7.17l131-118.24a23.26,23.26,0,0,1,14.54-6l301.42-13.32a4.85,4.85,0,0,1,3.08,8.74L913.9,1495.35Z"/><path class="cls-36" d="M738,1512.11c-4.89-12.27-9.94-24.43-14.58-36.89-.8-2.13-6.11-14.6-3.5-16.43,3.31-2.32,7.65,1,10.64,2.33,8.32,3.76,17,6.63,24.8,11.47,12.2,7.54,23.4,16.33,36.23,22.8,5.25,2.64,10.69,6.56,16.71,7.13,7.2.7,17.19-3.09,23.93-5.6,3-1.12-1.33-9.13-2-11-4.54-12.26-7.51-25.51-10-38.3-.42-2.11-2.08-13.93-1.85-14,2.1-.84,4.31,2.27,5.44,3.5,3.79,4.15,7.66,8.24,11.68,12.16,10.08,9.83,24.6,17.65,37.17,23.87,4.22,2.1,8.68,5.41,13.63,5.15,8.65-.45,13.52-16.79,16.66-22.47,1.33-2.41,2.57-4.85,4-7.19,2.19-3.59,4.52-7.11,6.92-10.57a121.07,121.07,0,0,1,7.71-10c.29-.33,2.29-2.78,3-2.56,3.72,1.19,1.58,10.51,1.18,12.53-2.55,13-4.36,26.07-5.87,39.23-.55,4.7-1.08,10-2,15.24l-4,2.92L807.57,1506Z"/><path class="cls-37" d="M611,1522.2a4.11,4.11,0,0,1-.32-6.38l131-118.24a23.26,23.26,0,0,1,14.54-6l301.42-13.32a4.82,4.82,0,0,1,4.77,3.23,4.55,4.55,0,0,1,.25,1.15,4.75,4.75,0,0,0-3.34-1.15c-58.11,2.56-258.06,11.39-301.42,13.32a23.22,23.22,0,0,0-14.55,6L612.38,1519A4.07,4.07,0,0,0,611,1522.2Z"/><path class="cls-32" d="M784.52,1512.89c-10.45-6.05-20.51-14.56-29.94-22.1-5.82-4.67-12.18-9-17.23-14.5-4.61-5.06-9-9.71-14.74-13.5-1.77-1.18-7-3.19-7.61-5.5-.87-3.15,6.56-4.62,8.31-4.9,9-1.47,17.61,2.59,24.58,8,10.73,8.38,19.94,19,25.55,31.54,1.59,3.54,2.54,7.32,4.07,10.87"/><path class="cls-31" d="M864.08,1555.46c8.21-.11,16.07-.58,24.1-2.63,14-3.56,31.7-7.33,41.42-17.75,4.59-4.94,11.94-16.13,9.74-23.2-.67-2.12-11.94-9-11.42-14.83.33-3.64,3-8,4.39-11.38,2.94-7.19,4.38-13,3.48-20.57-1.4-11.93,2-25.42,5.63-36.66,1.29-4,4.24-11-1.92-12.39-7.62-1.69-13.84,3.23-17.65,9.13a58.64,58.64,0,0,0-6.34,12.79c-1.33,4-1.09,8.49-2.66,12.39-2.39,5.93-10.32,9.47-16.24,8.91-4.64-.45-9.14-2.15-13.65-3.23-4.93-1.17-11.17-2.07-15.47-4.93-3.76-2.5-7-6.24-10.19-9.41-5.94-5.92-12-12.22-18.57-17.41a30.14,30.14,0,0,0-15.77-6c-2.26-.26-5.41-.27-7.08,1.61-3.23,3.64,1,10.4,2.43,14.16,3.05,8.28,6.15,17,10.94,24.49,1.9,3,4.49,5.54,6.69,8.3a80.89,80.89,0,0,1,6.62,8.6c1,1.58,1.44,3.49-.76,4.27-2.47.87-6-1.87-8.07-2.9-7.71-3.78-13.12-7.62-18.17-14.5-11.32-15.41-22.56-34.27-43.24-36.75a28.73,28.73,0,0,0-9.57,0c-5.37,1.13.25,10.58,1.59,13.62a35.45,35.45,0,0,0,1.55,3.3c.72,1.28,1.41,2.59,2.05,3.9.81,1.71,1.57,3.43,2.32,5.17s1.62,3.52,2.32,5.32c.08.22.75,1.75.47,2-.52.39-2-1.09-2.33-1.32-2.32-1.89-4.85-3.53-7.08-5.54-7.79-7.09-13.5-14.86-25.13-14.37-2.38.1-7.36.15-8.93,2.45-1.4,2,4.37,7.14,5.5,8.52,6.83,8.41,13.43,17.33,19.58,26.25s12.38,17.61,18.54,26.45c4.8,6.88,9.79,14.81,16.52,20,5.48,4.24,12.42,5.2,18.58,8.08,12.36,5.78,20.93,9.74,32.65,16.73C846.22,1549.19,860.11,1550.71,864.08,1555.46Z"/><path class="cls-32" d="M755.78,1444.51c2.6,2.29,5.1,4.89,7.86,7.41,2.23,2,4.76,3.65,7.08,5.54.29.23,1.81,1.71,2.33,1.32.11-.08.08-.38,0-.71,2.92,6.55,6.66,12.79,9.51,19.34,1.27,2.9,2.83,5.71,4.26,8.53.44.87.94,1.71,1.4,2.56.24.44,1.17,1.26.68,1.34-.76.1-2.36-1.78-2.81-2.25a74.11,74.11,0,0,1-6.88-8.32c-4.66-6.62-8.83-13.56-13.37-20.25-3.07-4.51-6.64-8.81-9.47-13.47A11.76,11.76,0,0,1,755.78,1444.51Zm13.9,5.66.59.68c.3,1,.63,1.92,1,2.87l-1-2.21C770.07,1451.06,769.88,1450.62,769.68,1450.17Z"/><path class="cls-25" d="M629.64,923.65l21.92-17.5S668,939.83,677,956.74s59.8,111.43,61.77,117,11.2,56.08,10.27,59.22-5.17,12.81-5.17,12.81l-1.75-30.24-9.62-11.82s5.83-9.05,5.69-12.44-2.11-12.45-8-16.29-35.68,53-35.68,53-48.75-140.05-49-143S627.92,922.6,629.64,923.65Z"/><path class="cls-25" d="M748.36,1127.32l.68,5.59,17.82-37.3,2.49-8.58a6.53,6.53,0,0,1,8,.38c4,3.34,15.62,43.54,15.62,43.54s33.95-86.68,36.76-94.79,20.63-53.71,20.63-53.71l-17.2-15.69s-42.27,72.18-50,84.14S758.57,1088,758.57,1088Z"/><path class="cls-22" d="M670,852.88c1.59,22.33,8.1,44.32,15.25,65.4,5.12,15.11,10.94,32.91,22.45,44.45,7.78,7.79,18.37,11.13,28.68,13.85,23.83,6.3,56.9,15,79-.67S850,934,859.91,909.7c6.65-16.27,14.15-33.58,18.39-50.71,2.79-11.24,2.83-23,5.75-34.16,5.56-21.36,14.81-48,5.3-69.71-27-61.67-116.31-74.49-167.16-36.58-9.17,6.84-30.19,26.27-37,34.79a85.77,85.77,0,0,0-9.09,14.81c-.63,1.24-2,5.55-3.21,6.27-.71.42-2.44-2.78-2.68-3.29-1.68-3.65-2.4-7.65-4.14-11.3-3.42-7.21-15-21.11-24.59-14.54-9.11,6.27-11.3,20.58-12.61,30.77-3.5,27.35,1.59,43.67,22.63,62.36,4.89,4.34,10.36,9.68,16.17,12.8"/><path class="cls-38" d="M673.34,774c1.09-1.31,2.22-4.77,2.77-5.86a85.77,85.77,0,0,1,9.09-14.81c6.8-8.52,27.82-28,37-34.79C771.5,681.78,857,692.72,886.74,749.67L880,753.92c-8.59,8.43-21.16,11.29-32.53,14-23.63,5.65-48,7.55-72.24,7.59-17.7,0-36.2-.22-50.69,11.61a39.05,39.05,0,0,0-9.75,12.21c-5.61,10.64-7.73,25.73-2,36.84,6.35,12.33,17.69,19.18,18.85,34.34,1.84,24.15-13.29,49.77-4.41,73.09,3.58,9.41,10.28,19.35,18.26,25.53,4.88,3.79,10.49,7.63,16.83,8.21,4.07.37,8.89-1.94,12.85-.93,5.21,1.33,10,5.62,15,8-18,1.51-37.87-3.71-53.67-7.88-10.31-2.72-20.9-6.06-28.68-13.85-11.51-11.54-17.33-29.34-22.45-44.45-7.15-21.08-13.66-43.07-15.25-65.4l-2.34-1.67c-5.81-3.12-11.28-8.46-16.17-12.8-21-18.69-26.13-35-22.63-62.36.71-5.53,1.68-12.26,3.87-18.27a13.07,13.07,0,0,1,5.37-.34c5.37.91,11.46,9,14.15,13.26,4.57,7.25,7.44,16.68,8.55,25.15.11.72,1.52,7.95.69,8.2-1.47.44-3.4-.61-4.57-1.38-2.92-1.9-10.8-15.31-12.51-4.58-.39,2.5,1.33,4.82,2.56,6.8,3.11,5,14.57,21.73,22,13.39,5.13-5.8,6-15.44,6.3-22.8A80.09,80.09,0,0,0,673.34,774Z"/><path class="cls-39" d="M831.48,834.32c-1.51,12,1.11,25.83,5.82,37.08,1.93,4.63,6.61,9.82,6.43,15-.27,7.81-10.27,15.57-17,20.56-1.61,1.19-3.53,1.91-5,3.27-.24.22-2,2.55-2.18,2.53-.56,0-1.31-1-1.54-1.27-2.79-3.23-3.79-8.22-4.39-12.13-.63-4.1-2-9.31-1-13.5,1.64-7,5.18-13.68,7.06-20.64,2.17-8,3.69-16.08,6.09-24"/><path class="cls-40" d="M640.94,745c-5.41-33.31-3.08-61.9,3.27-95,3.13-16.34,7-31.85,19.12-44,14.83-15,40.45-23.49,61.41-21,7,.82,14.56,7.21,21.16,6.86,5.89-.32,12.41-5.33,17.89-7.16,11.54-3.88,25.27-4.21,37.29-3.15,57.7,5.07,91.81,47.07,109.3,98.5,3.15,9.25,8,18.4,9.24,28.18a60.72,60.72,0,0,1,0,17c-7.28,45.94-65.37,43.83-99.77,43.83-15.72,0-30.36-1.69-44.58-8.82-13.72-6.87-27-14.47-41.29-20.19-5.28-2.13-13.33-5.22-19.16-3.2-10.41,3.6.88,23-1.1,30.93-2.25,8.88-10.11,9.73-15.45,15.23-3.74,3.84-4.13,12.15-5,17.23-1.26,7.51-2.07,15.25-4.14,22.6-.14.54-1.88,6.27-2.56,6.09-6.85-1.8-7.45-16.26-8.77-21.9-3.45-14.73-4.45-53.69-28.1-62.54C647,743.52,644.58,743.71,640.94,745Z"/><path class="cls-41" d="M671.21,599.34a49.59,49.59,0,0,0-5.81,13.29c-3.61,13.18-.47,24.16,8,34.69a74.25,74.25,0,0,0,9.38,9.3c2.47,2.14,4.91,4.4,7.59,6.3,17.42,12.45,12.14-28.53,30.07-17,10.9,7,19,19.05,27.78,28.37a467.82,467.82,0,0,0,36.37,34.88C818,737.6,874.85,752.88,917.08,735c-13.5,35.92-65.47,34.12-97.24,34.12-15.72,0-30.36-1.69-44.58-8.82-13.72-6.87-27-14.47-41.29-20.19-5.28-2.13-13.33-5.22-19.16-3.2-10.41,3.6.88,23-1.1,30.93-2.25,8.88-10.11,9.73-15.45,15.23-3.74,3.84-4.13,12.15-5,17.23-1.26,7.51-2.07,15.25-4.14,22.6-.14.54-1.88,6.27-2.56,6.09-6.85-1.8-7.45-16.26-8.77-21.9-3.45-14.73-4.45-53.69-28.1-62.54-2.66-1-5.12-.81-8.76.49-5.41-33.31-3.08-61.9,3.27-95,3.13-16.34,7-31.85,19.12-44A60.18,60.18,0,0,1,671.21,599.34Z"/><path class="cls-42" d="M1777,1520.56l228.59,950.29-64.3,39.93-211.37-840.32Z"/><path class="cls-42" d="M1139.89,1447.06l292.76,1180-59.75,8.26L1104.17,1603.1Z"/><path class="cls-42" d="M1264,1899.44l-168,748.28,81.81,8,164.53-734.53Z"/><path class="cls-42" d="M2037.76,541.44l36.58,57.9-360.9,1385.85L1634,2013.83Z"/><path class="cls-17" d="M1108.62,670.76l927.75-193.11L2062,507.3l-404.84,1527L765.47,1851.93Z"/><path class="cls-43" d="M1085.4,640.06,2038.73,476.6,1629,2004,739.38,1843.35Z"/><path class="cls-44" d="M1131.51,724l769.67-102.23L1571.7,1805.14l-738.15-83.59Z"/><path class="cls-45" d="M1126.81,709.54,1896.49,607.3,1567,1790.66l-738.15-83.58Z"/><path class="cls-46" d="M1107.11,1058.22l2.34-7.56,66.83-.3-2.46,7.44-9.47,6.25h0l-2,6.49-6.9,0-30.73,99.29-36.37.15,30.73-99.28-8,0,2-6.5h.26Zm185.19,5.27-6.26-6,2.34-7.57,66.83-.29-2.46,7.43-9.49,6.26h0l-2,6.49-6.89,0-30.73,99.28-36.38.16L1298,1070l-8,0,2-6.49Zm-85.53-177.57c4.85,10.17,17.81,34.1,42.64,59.24l1.17,0-.27.94c27.49,27.56,69.26,56.42,130.22,70.13l.55.13,3-.06-3.94,13.31,7.61,0-6.16,19.91-316.11,1.38,6.16-19.91,68.07-.29,48.71-157.37,22.34-.09Zm-2.72,8.78-42,135.85,28.73-.13,31.58-106.89A217.81,217.81,0,0,1,1204.05,894.7Zm-10.13,135.71,28.33-.13,23.53-79.61a248,248,0,0,1-21.18-24.12Zm31.52-.14,28.33-.12,17-57.57a251.35,251.35,0,0,1-22.54-19.49Zm31.52-.14,28.32-.12L1297,990.24a260.28,260.28,0,0,1-23.66-15.69Zm31.51-.14,28.33-.12,7.58-25.65a266.89,266.89,0,0,1-24.63-12.41Zm31.52-.13,28.33-.13,4.38-14.83q-13.44-4.27-25.5-9.46Zm31.52-.14,25.4-.11,2.25-7.64-1.45-.33q-11.49-2.6-22.09-5.85Z"/><path class="cls-46" d="M1634.56,1055.92l2.34-7.57-66.83.29-2.14,7.43,5.62,6.19h0l-2,6.49,6.9,0L1547.71,1168l36.37-.16,30.73-99.28,8,0,2-6.5h-.26Zm-189,6.9,10-6.12,2.34-7.57-66.83.29-2.14,7.43,5.64,6.19h0l-2,6.49,6.89,0-30.73,99.29,36.38-.16,30.73-99.28,8,0,2-6.49ZM1641.44,884c-11.17,10.25-39,34.36-79.48,59.78h-1.17l-.31.94c-44.65,27.88-104.42,57.18-174,71.47l-.64.13-2.92,0-4.3,13.31-7.61,0-6.16,19.91,316.11-1.38,6.16-19.91-68.07.3,48.7-157.36-22.33.09Zm-2.72,8.79-42,135.85-28.73.12,34.6-106.91C1618.34,910.19,1630.57,900,1638.72,892.8Zm-74,136-28.33.13,25.76-79.63c13.46-8.39,25.56-16.65,36.19-24.37Zm-31.52.14-28.33.13,18.63-57.57c12.33-6.49,23.92-13.15,34.68-19.75Zm-31.52.14-28.32.12,12.87-39.77c11.66-5.09,22.83-10.46,33.45-15.94Zm-31.51.14-28.33.12,8.31-25.66q16.72-5.91,32.38-12.65Zm-31.51.14-28.34.12,4.81-14.84q16.11-4.39,31.42-9.7Zm-31.52.13-25.41.12,2.48-7.64,1.67-.35q13.11-2.69,25.76-6.05Z"/><path class="cls-46" d="M1375.46,995.87h.22a2.68,2.68,0,0,0,2.52-2.06c0-.08.11-.41.25-1a2.7,2.7,0,0,0-5.23-1.31c-.13.62-.24,1-.24,1h0a2.63,2.63,0,0,0-.09.67A2.74,2.74,0,0,0,1375.46,995.87Zm2.9-25c-.85,3.52-1.65,6.71-2.34,9.51a2.69,2.69,0,1,0,5.22,1.3c.69-2.77,1.49-6,2.35-9.48a2.7,2.7,0,1,0-5.23-1.33Zm5.15-20.66c-.81,3.3-1.61,6.46-2.35,9.51a2.68,2.68,0,0,0,2,3.27,2.65,2.65,0,0,0,3.26-2c.75-3,1.55-6.22,2.35-9.49a2.69,2.69,0,1,0-5.22-1.33Zm5.14-20.65c-.78,3.21-1.58,6.37-2.35,9.51a2.69,2.69,0,0,0,5.22,1.33c.77-3.14,1.58-6.32,2.38-9.51a2.74,2.74,0,0,0-2-3.3A2.7,2.7,0,0,0,1388.65,929.52Zm5.16-20.66c-.8,3.16-1.57,6.32-2.37,9.51a2.73,2.73,0,0,0,2,3.3,2.7,2.7,0,0,0,3.26-2c.8-3.19,1.58-6.38,2.38-9.51a2.76,2.76,0,0,0-2-3.3A2.72,2.72,0,0,0,1393.81,908.86ZM1399,888.2c-.78,3.08-1.58,6.27-2.38,9.51a2.72,2.72,0,0,0,2,3.3,2.69,2.69,0,0,0,3.26-2c.8-3.27,1.61-6.43,2.38-9.51a2.71,2.71,0,0,0-2-3.27A2.67,2.67,0,0,0,1399,888.2Zm5.14-20.63c-.72,2.89-1.52,6.08-2.38,9.49a2.69,2.69,0,1,0,5.22,1.33c.86-3.44,1.66-6.6,2.38-9.51a2.71,2.71,0,0,0-2-3.27A2.67,2.67,0,0,0,1404.1,867.57Zm3.34-13.69.06,0-.64,2.58a2.69,2.69,0,1,0,5.22,1.3c1-3.83,1.5-6,1.5-6l-2.6,2.06-.11-5.41-3.57.11a2.69,2.69,0,0,0-2.62,2.77A2.74,2.74,0,0,0,1407.44,853.88Zm-212.12,5.57c2.38-.08,5.69-.17,9.75-.28a2.7,2.7,0,0,0-.13-5.4c-4.07.11-7.38.19-9.76.27a2.71,2.71,0,0,0,.14,5.41Zm21.2-.55c3.06-.09,6.33-.17,9.78-.28a2.71,2.71,0,1,0-.17-5.41c-3.42.11-6.68.2-9.75.25a2.72,2.72,0,0,0,.14,5.44Zm21.22-.59,9.76-.25a2.7,2.7,0,0,0-.14-5.4l-9.76.25a2.72,2.72,0,0,0-2.62,2.77A2.67,2.67,0,0,0,1237.74,858.31Zm21.2-.55,9.78-.25a2.7,2.7,0,0,0,2.63-2.77,2.73,2.73,0,0,0-2.76-2.64l-9.79.25a2.75,2.75,0,0,0-2.62,2.77A2.71,2.71,0,0,0,1258.94,857.76Zm21.23-.56,9.75-.25a2.7,2.7,0,0,0-.14-5.4l-9.75.25a2.72,2.72,0,0,0-2.63,2.77A2.67,2.67,0,0,0,1280.17,857.2Zm21.22-.55,9.76-.25A2.71,2.71,0,0,0,1311,851l-9.78.25a2.71,2.71,0,0,0,.16,5.41Zm21.2-.55,9.76-.25a2.71,2.71,0,0,0,2.62-2.78,2.67,2.67,0,0,0-2.76-2.63l-9.76.25a2.71,2.71,0,0,0,.14,5.41Zm21.23-.56,9.75-.25a2.71,2.71,0,0,0-.13-5.41l-9.79.25a2.71,2.71,0,0,0,.17,5.41ZM1365,855c3.39-.11,6.66-.2,9.78-.28a2.68,2.68,0,0,0,2.6-2.77,2.72,2.72,0,0,0-2.77-2.64c-3.09.09-6.35.2-9.75.28a2.7,2.7,0,0,0-2.63,2.77A2.72,2.72,0,0,0,1365,855Zm21.22-.56,9.76-.28a2.7,2.7,0,0,0-.14-5.4c-2.9.08-6.19.16-9.76.27a2.71,2.71,0,0,0,.14,5.41Z"/><path class="cls-46" d="M1673.79,1142.21c-1,3.66-1.88,6.82-2.6,9.45a2.7,2.7,0,0,0,5.2,1.42c.72-2.61,1.57-5.77,2.59-9.43a2.73,2.73,0,0,0-1.9-3.33A2.67,2.67,0,0,0,1673.79,1142.21Zm5.61-20.55q-1.37,5-2.6,9.46a2.71,2.71,0,0,0,5.22,1.44q1.21-4.45,2.57-9.46a2.69,2.69,0,1,0-5.19-1.44Zm5.64-20.52c-.89,3.25-1.77,6.41-2.6,9.46a2.69,2.69,0,1,0,5.19,1.44c.83-3,1.72-6.21,2.6-9.45a2.69,2.69,0,1,0-5.19-1.45Zm5.61-20.51c-.86,3.21-1.74,6.35-2.57,9.45a2.69,2.69,0,0,0,5.19,1.42c.83-3.08,1.72-6.24,2.57-9.43a2.69,2.69,0,1,0-5.19-1.44Zm5.64-20.52c-.89,3.16-1.75,6.32-2.6,9.43a2.71,2.71,0,0,0,1.88,3.32,2.68,2.68,0,0,0,3.31-1.88c.86-3.11,1.75-6.27,2.6-9.46a2.69,2.69,0,1,0-5.19-1.41Zm5.63-20.55c-.88,3.16-1.74,6.33-2.59,9.46a2.69,2.69,0,1,0,5.19,1.44c.86-3.13,1.72-6.29,2.6-9.45a2.73,2.73,0,0,0-1.88-3.33A2.7,2.7,0,0,0,1701.92,1039.56Zm5.61-20.51c-.85,3.16-1.71,6.29-2.57,9.45a2.71,2.71,0,0,0,1.88,3.33,2.68,2.68,0,0,0,3.29-1.92c.89-3.13,1.74-6.29,2.6-9.42a2.7,2.7,0,1,0-5.2-1.44Zm5.64-20.52c-.85,3.13-1.74,6.29-2.6,9.42a2.72,2.72,0,0,0,1.88,3.33,2.67,2.67,0,0,0,3.32-1.88c.88-3.16,1.74-6.3,2.6-9.46a2.69,2.69,0,1,0-5.2-1.41Zm5.61-20.55c-.83,3.14-1.71,6.3-2.57,9.46a2.7,2.7,0,0,0,5.2,1.44c.86-3.19,1.74-6.32,2.6-9.46a2.71,2.71,0,0,0-5.23-1.44Zm5.64-20.52c-.86,3.11-1.71,6.27-2.6,9.46a2.75,2.75,0,0,0,1.91,3.33,2.71,2.71,0,0,0,3.29-1.92c.88-3.19,1.74-6.32,2.6-9.42a2.7,2.7,0,1,0-5.2-1.45Zm5.64-20.51c-.86,3.07-1.71,6.24-2.6,9.42a2.7,2.7,0,0,0,1.88,3.33,2.67,2.67,0,0,0,3.32-1.88c.88-3.22,1.74-6.35,2.6-9.46a2.71,2.71,0,0,0-1.88-3.3A2.67,2.67,0,0,0,1730.06,937Zm5.61-20.55q-1.25,4.58-2.57,9.46a2.67,2.67,0,0,0,1.88,3.32,2.71,2.71,0,0,0,3.32-1.88c.88-3.27,1.74-6.41,2.57-9.46a2.7,2.7,0,1,0-5.2-1.44Zm5.64-20.52c-.8,2.94-1.69,6.1-2.6,9.46a2.69,2.69,0,1,0,5.2,1.41c.94-3.35,1.79-6.49,2.59-9.43a2.7,2.7,0,0,0-1.88-3.32A2.66,2.66,0,0,0,1741.31,895.88Zm5.64-20.51c-.64,2.3-1.52,5.49-2.6,9.42a2.69,2.69,0,1,0,5.19,1.44c1.08-3.93,2-7.15,2.6-9.45a2.71,2.71,0,0,0-1.9-3.3A2.65,2.65,0,0,0,1747,875.37Z"/><path class="cls-46" d="M1221,1562.71c-.81,2.91-1.25,4.47-1.25,4.47a2.7,2.7,0,1,0,5.2,1.44s.44-1.55,1.24-4.47a2.69,2.69,0,1,0-5.19-1.44Zm5.72-20.51c-1,3.46-1.85,6.62-2.63,9.45a2.68,2.68,0,1,0,5.17,1.44c.8-2.83,1.69-6,2.63-9.45a2.72,2.72,0,0,0-1.86-3.33A2.68,2.68,0,0,0,1226.69,1542.2Zm5.69-20.52c-.91,3.3-1.8,6.46-2.63,9.45a2.7,2.7,0,1,0,5.2,1.44c.83-3,1.69-6.15,2.6-9.42a2.69,2.69,0,1,0-5.17-1.47Zm5.69-20.49c-.91,3.21-1.76,6.37-2.62,9.42a2.7,2.7,0,0,0,5.19,1.47c.86-3.07,1.72-6.23,2.63-9.45a2.7,2.7,0,1,0-5.2-1.44Zm5.7-20.52-2.63,9.45a2.7,2.7,0,1,0,5.2,1.45c.85-3.11,1.74-6.24,2.62-9.46a2.73,2.73,0,0,0-1.88-3.33A2.7,2.7,0,0,0,1243.77,1480.67Zm5.69-20.49c-.88,3.16-1.77,6.32-2.62,9.43a2.69,2.69,0,1,0,5.19,1.44c.86-3.11,1.74-6.27,2.63-9.43a2.72,2.72,0,0,0-1.88-3.33A2.69,2.69,0,0,0,1249.46,1460.18Zm5.69-20.52c-.88,3.16-1.74,6.32-2.62,9.43a2.71,2.71,0,0,0,1.88,3.33,2.67,2.67,0,0,0,3.32-1.86c.88-3.14,1.74-6.3,2.62-9.46a2.7,2.7,0,0,0-5.2-1.44Zm5.7-20.52c-.86,3.16-1.74,6.3-2.63,9.46a2.7,2.7,0,1,0,5.2,1.44c.88-3.13,1.74-6.29,2.62-9.43a2.7,2.7,0,0,0-5.19-1.47Zm5.69-20.49c-.86,3.14-1.74,6.27-2.6,9.43a2.69,2.69,0,1,0,5.17,1.47c.89-3.16,1.77-6.32,2.63-9.45a2.69,2.69,0,0,0-1.85-3.33A2.74,2.74,0,0,0,1266.54,1398.65Zm5.72-20.51c-.88,3.13-1.74,6.26-2.62,9.45a2.69,2.69,0,1,0,5.19,1.44c.86-3.16,1.74-6.32,2.6-9.45a2.68,2.68,0,1,0-5.17-1.44Zm5.7-20.49c-.86,3.07-1.75,6.23-2.63,9.42a2.7,2.7,0,1,0,5.2,1.44c.88-3.18,1.74-6.32,2.62-9.42a2.71,2.71,0,0,0-1.88-3.33A2.66,2.66,0,0,0,1278,1357.65Zm5.69-20.52-2.63,9.42a2.69,2.69,0,0,0,1.88,3.33,2.66,2.66,0,0,0,3.32-1.86c.88-3.21,1.77-6.37,2.63-9.45a2.74,2.74,0,0,0-1.88-3.33A2.7,2.7,0,0,0,1283.65,1337.13Zm5.69-20.52c-.85,3.05-1.71,6.18-2.62,9.45a2.72,2.72,0,0,0,1.88,3.33,2.68,2.68,0,0,0,3.31-1.88c.92-3.25,1.77-6.41,2.63-9.43a2.7,2.7,0,0,0-5.2-1.47Zm5.7-20.49c-.81,2.91-1.69,6.07-2.63,9.43a2.7,2.7,0,0,0,5.2,1.44c.94-3.33,1.82-6.49,2.62-9.43a2.69,2.69,0,1,0-5.19-1.44Zm5.69-20.52c-.64,2.3-1.52,5.49-2.63,9.43a2.75,2.75,0,0,0,1.88,3.35,2.7,2.7,0,0,0,3.32-1.88c1.11-4,2-7.16,2.63-9.46a2.7,2.7,0,1,0-5.2-1.44Z"/><path class="cls-47" d="M1126.81,709.54,1896.49,607.3,1567,1790.66l-738.15-83.58Z"/><path class="cls-48" d="M1660,541.54,1617.2,709l-274.79,14.41-17-31.55,145.82-118Z"/><path class="cls-42" d="M1363.88,575.08l-43.62,119L1330,702l270.92-21L1645.06,520l-12.44-6.34Z"/><path class="cls-17" d="M1352.44,567.78l-32.32,125.81,268.69-25.87L1631.13,514Z"/><ellipse class="cls-49" cx="1392.73" cy="594.54" rx="21.4" ry="11.46" transform="translate(471.71 1796.57) rotate(-75.66)"/><ellipse class="cls-49" cx="1553.83" cy="569.04" rx="24.67" ry="13.97" transform="translate(599.92 1921.17) rotate(-74.91)"/><path class="cls-50" d="M762.3,1763.61,932.17,1580c16.17,19.77,55.47-79.18,88.55-42.19,68,76.08,141.44,294,155.61,267.76,69.69-129.21,231.26-432.42,236.53-460.3,3.16-16.69,1.6-33.7,5.5-50.29,2.77-11.85,7.67-45.73,9.85-46.46,5.65-1.89,1.75,47.14,9.3,58,10.52,15,34.29,63,34.85,68.3,5.71,55.42-69.5,85-85.82,136.19-33,103.35-47.51,246.68-105.72,345.51-21,35.68-77.22,59.64-89.81,60.17-55.34,2.32-142-30-190.8-63.17-27.46-18.68-51.27-42-72-67.91-6.92-8.69-1.06,41.91,4.83,92.74l-113.5-20.5c-27.68-26.73-52.79-51.47-65.48-65.63Z"/><path class="cls-51" d="M955.78,2286.73c-13.33,45.88-22.88,117.34-11.37,188.07s26.4,167.14,26.4,167.14l109-31.14,27.59-347.16S969.11,2240.85,955.78,2286.73Z"/><path class="cls-40" d="M951.56,1955.42c56.54,19.91,251.1,118.36,317.66,148.94s113.94,58,126.22,72.93c15.09,18.42,11.17,100.37,5.74,114s-121.6,317.24-121.6,317.24l-112.32,8.1s3.69-134.76,2.75-181.53c-1.67-82.31,34.6-137.42,34.6-137.42s-58.86,5.16-114.36,6.12-117.31,9.68-151.58,2.25-210.6-224.49-210.6-224.49S895,1935.53,951.56,1955.42Z"/><path class="cls-51" d="M805,2082.31c0-.19.16-.27.55-.17l-.55.17c0,.82,2.85,3.78,3.58,5.32a37.12,37.12,0,0,0,6.87,9.88c8.59,8.88,20.46,15,31.56,20,34.7,15.72,73.34,19.56,110.65,24.77,79.52,11.1,159.6,17.19,239,29,21.41,3.17,69.69,2.25,86.49,19.1,11.82,11.85-44.06,60.32-52.83,69.78-.29.32-1.12,1.1-.88,1.67.65,1.52,4.81.65,5.87.56,26.09-2.39,51.59-11.26,78.08-13.23.46,0,3.75-.59,4.11.12s-2,2.65-2.33,3c-9.73,9.75-56.48,36.17-58.82,44.77-.68,2.51,13.29,7.3,15.29,9.56,6.66,7.51,6.3,19.54,4.88,28.78-5.34,34.45-21.14,67.3-32.24,100.11-14.88,44-29.33,88.92-41,133.89-2.12,8.19-5.85,26.19-10.49,45.36l-25.59,1.85s3.7-134.76,2.75-181.54c-1.66-82.29,34.61-137.41,34.61-137.41s-58.86,5.17-114.37,6.11-117.31,9.69-151.59,2.26C910.8,2300,789.1,2155.47,744.51,2101.57Z"/><path class="cls-52" d="M1136.74,1316l-51.44,38.46s10.23,66.64,30.18,70.11l77.69-85.16Z"/><path class="cls-53" d="M1176.21,1332.34l17,7-77.69,85.16c-13.63-2.37-22.72-34.24-27.11-54.18,4.52-1.31,9-2.83,13.45-4.29C1128.38,1357.3,1155.48,1351.57,1176.21,1332.34Z"/><path class="cls-54" d="M1133.26,1318.33c.1.34.2-.67.3-1,.24-.77.49-1.54.7-2.32.62-2.14,1.2-4.28,1.78-6.44,1.74-6.51,3.4-13,5.39-19.49,4.42-14.36,9-28.63,13.63-42.91,2.21-6.76,3.48-15.85,8.89-20.88,10.27-9.53,25.42-12,38.12-16.21,11.08-3.73,22.33-7.79,33.21-12.13,3-1.2,10.12-5.45,13.53-4.74,1.48.3,2.93,3.21,3.89,4.28,2.26,2.47,5.33,4,7.91,6.06,8.54,6.79,15.18,15.77,23.55,22.77,3.95,3.3,10.14,5.27,13.6,8.89,1.08,1.11-2.87,4.44-3.41,4.85-4.66,3.52-11.37,3.15-16.91,3.62-4.12.35-9.55-1.09-13.43.36-1.92.73-3,3.4-4.32,4.91-3.73,4.41-7.74,8.67-11.58,13-18.57,21-33,46.2-49,69.29-4.11,6-25.64,19.56-30.18,18.35-15.42-4.16-34.55-9.46-34.55-27"/><path class="cls-55" d="M1207.17,1318.3l-31.89-14.69a12.42,12.42,0,0,1,.74-1.91c1.18-2.76,2.39-5.49,3.59-8.25,2.63-6,5.08-12.11,7.65-18.15,7.51-17.66,13.8-37.52,24.5-53.61,4.5-6.77,8.88-5.77,15.92-7.3,9.57-2.09,24.62-4.59,34,.63,7.87,4.39,13,11.33,22.26,14a35.19,35.19,0,0,0,7.72.89,25.63,25.63,0,0,1,6.14,4.3c1.07,1.11-2.88,4.43-3.43,4.84-4.65,3.54-11.37,3.15-16.9,3.62-4.11.36-9.55-1.08-13.43.37-1.91.72-3,3.4-4.32,4.9-3.73,4.42-7.74,8.68-11.59,13C1232.69,1278.34,1220.12,1298.69,1207.17,1318.3Z"/><path class="cls-56" d="M1110.83,1182.52l183.55,62.85,19.45,16.12-24.54.39-183.85-63.52s-2-3.79.4-9.59C1108.54,1182.3,1110.83,1182.52,1110.83,1182.52Z"/><path class="cls-57" d="M1195.83,1229.59a26.5,26.5,0,0,1,10.52-2.37c12.57,0,25.54,5.94,37.81,1l50.22,17.2,19.45,16.12-24.54.39Z"/><ellipse class="cls-58" cx="1109.42" cy="1190.53" rx="7.02" ry="2.51" transform="translate(-342.36 1925.72) rotate(-73.88)"/><path class="cls-54" d="M1172,1295.84c.55.37,5-4.46,5.36-4.81,6-6.27,11.74-12.72,18.46-18.22,16.8-13.76,35.68-25.08,54.07-36.33,6.28-3.84,12.73-7.52,18.94-11.48.67-.44,4.17-4.44,4.88-3.13,10.09,18.89-20.19,35.58-30.54,46.93-25.51,27.93-27.14,87.19-75.37,78.35"/><path class="cls-59" d="M1274.48,1223.56c7.51,18.2-21.3,34.23-31.34,45.24-19.5,21.36-25.05,61-48.14,74.57a55.48,55.48,0,0,1,2.18-5.17c9.91-18.44,8.29-39.6,15.68-58.9,8.18-21.34,31.75-31.18,48.82-44.15C1266.1,1231.79,1270.88,1228,1274.48,1223.56Z"/><path class="cls-54" d="M815.19,1148.6,785.25,1220l160.83,54.07,14.7-57.59,49.83,10.12-1.24-119.08L967,1039.36"/><path class="cls-59" d="M890.69,1250.16l71.75,20.49c-2.71-5-6-9.89-8.26-15-5.31-11.73-7.85-24.7-9.87-37.35a154.82,154.82,0,0,1-1.91-15.91c0-.72-.58-3.8-.27-4.41.38-.78,9.2,14.83,9.42,15.08,4.42,5.19,54.56,13.92,54.56,13.92-.72-2.27-1.41-4.49-2.13-6.49-2.87-7.84-6.33-15.52-9.31-23.34-2.55-6.66-2.32-14.17-3.54-21.13-2.16-12.17-6-24.73-6.85-37.07-.39-5.24-1.86-10.07-2.46-15.11-.92-7.18-.72-19.63-9-22.77-26.15-9.84-45,19.36-61.3,35.69-12.94,13-26.62,25.45-38.06,39.81-3.79,4.77-6.5,9.79-9.84,14.84-1.46,2.19-3.32,3.33-4.12,5.74-.52,1.66,1.58,2.71,2.46,3.85,2.21,2.75,3.73,6,5.47,9.07,3.49,6,4.62,13,8,18.94C879.5,1236.44,885.28,1243.65,890.69,1250.16Z"/><path class="cls-40" d="M1081.48,1016c3.23,2.19,8.43-4,9.92-6.13,6.63-9.29,14.92-22.07,18.55-32.91,9.61-29,3.26-65.35-21.87-80.46-34.57-20.83-73.18-41.21-111.87-39.6-30.79,1.28-71.39,10.68-101.91,15.78-11.52,1.94-24.29,3.27-34.66,9.15-42.2,23.79-40.6,103-50.27,145.56-5.86,26,10.15,132.07,17.88,137.22,18.91,12.65,45.52,16.28,67.3,20.94,11,2.38,22.17,5.6,33.5,5.6,4.28,0,10,0,13.51-2.94,13-10.87,21-27.51,30.57-41.26,8.16-11.73,18.91-21.79,26.15-33.91,6.46-10.81,8.84-23.43,16.44-33.6,1.41-1.92,4.23,26.34,6.33,25.28,10.67-5.35,26.67-32.41,38.64-34.13,12.13-1.74,20.34-11.89,26.75-21.51"/><path class="cls-54" d="M1086.84,992.33c2.24,11.4,2,22.57,3.1,34.08.91,9.2,2,17.3.88,26.53-1.52,12.2-9.78,22.41-11.75,34.19a86.94,86.94,0,0,0-.88,14.75c0,10.81,2.29,22.21,4.39,32.72,1,4.77,3.27,10.87.89,15.61-2.13,4.3-10.12,5.49-14.1,7.1-9.06,3.63-15,5.93-20.28,14.44-5.42,8.68-10.15,17.83-15.56,26.54-4,6.37-6.36,13.64-11.17,19.43-3.37,4.08-6,11-11.47,12.4-4.78,1.19-7.21-4.3-10-7.07-8.54-8.57-14.48-22.1-17.93-33.61-3.65-12.2-7.3-27-5.89-39.81,1.38-12.45,3.54-26.15,1.77-38.63-.67-4.74-6.3-8-7.93-13a170.71,170.71,0,0,1-8.82-42.45c-.5-6.51-1-14,.88-20.35a65.91,65.91,0,0,1,3.82-9.73c3.18-6.35,8.81-7.26,15-6.49,12.35,1.56,17.94,24.82,19.43,36.88,1.77,14.31-5.94,32.72,1.19,30,9.78-3.74,6-24.65,20.36-41.15,12.41-14.28,43.45-24.34,47.76-28.67,5.23-5.24,10.51-9.73,11.78-17.38"/><path class="cls-59" d="M1069.84,1016.68a115,115,0,0,1-8.81,17.66c-4.7,7.57-10.53,14.25-16.25,20.93-4.59,5.38-9.4,9.71-11.42,16.8-3.32,11.62-5.11,22-1.69,34.11,2.1,7.4,8,10.81,6.8,19.46-2.37,16.69-15.7,31.47-22.08,46.75-1.77,4.13-3,8.46-4.62,12.64-5.5,14.48-11.91,30.36-4.47,44.7-2.63-1.33-4.42-4.69-6.39-6.68-8.54-8.57-14.48-22.1-17.93-33.61-3.65-12.2-7.3-27-5.89-39.81,1.38-12.45,3.54-26.15,1.77-38.63-.67-4.74-6.3-8-7.93-13a170.71,170.71,0,0,1-8.82-42.45c-.5-6.51-1-14,.88-20.35a65.91,65.91,0,0,1,3.82-9.73c3.18-6.35,8.81-7.26,15-6.49,12.35,1.56,17.94,24.82,19.43,36.88,1.77,14.31-5.94,32.72,1.19,30,9.78-3.74,6-24.65,20.36-41.15C1034.66,1031.09,1063.54,1021.31,1069.84,1016.68Z"/><path class="cls-18" d="M531.41,1859.93c3.26-22.82,23.44-285,26.17-306.88,5.5-44.15,83.69-282.87,106.11-299.73,36.4-27.4,114-40.93,157.62-33.61,82,13.7,190.17,31.09,246.28,87.4,5.64,5.63,0,44.86,0,52.46,0,30.25,5.61,73.81-8.13,101.39-10.61,21.33-35.93,37.13-47.62,60.62l-2.32,1.05c-4.95,20.38,2.07,74.14-10,94-5.5,9-35.54,82.32-44.44,147.48-14.51,106.33,12.19,181.61,12.77,211.19,0,0-51,7.35-89.19,25.65-47.73,22.87-86.15,58.61-103.62,69.26-30.18,18.36-225.63-8.29-281.82-81.27C475.08,1965.51,522.73,1897.55,531.41,1859.93Z"/><path class="cls-60" d="M550.33,1636.88c3.51-42.72,6.33-76.55,7.24-83.84,5.5-44.12,83.72-282.87,106.1-299.7,36.43-27.4,114-40.93,157.62-33.64,52.79,8.82,116.41,19.19,170,40.46,6.55,9.23,11.44,18,9,20.38-.61.61-15.31-6.13-16.89-6.6-19.62-5.63-38.55-14.39-58.26-19.8-50.74-13.86-110.27-4.1-159.69,9.43-10.47,2.88-31.67-2.5-40.41,1.88-13.54,6.8,10.51,48.86,6.58,52.8-18.46,18.52-75.75,15.94-91.12,28.28-24,19.27-7.27,62.6-15,88.58-3.78,12.59-12.1,23.35-17.85,34.88-1.91,3.8-1.35,11.62-2.82,16-12.3,37-25.9,74.59-39.47,111.22C560.55,1610.21,555.47,1623.43,550.33,1636.88Z"/><path class="cls-19" d="M1050.66,1474.35c-12.27,15.25-29.68,28.89-38.83,47.22l-2.32,1.08c-5,20.35,2.1,74.11-10,94-5.5,9-35.54,82.35-44.41,147.48-14.51,106.36,12.16,181.61,12.74,211.22,0,0-51,7.35-89.16,25.62-47.73,22.9-86.17,58.64-103.64,69.26-30.15,18.38-225.61-8.29-281.83-81.27-2.73-3.57-4.17-10.5-4.56-19.88,64.62-6.37,143.58,1.39,208.53-1.71,47-2.25,91.37-20.8,137.28-26.57,11.41-1.44,28.44-11.61,37.26-18.68,4.89-3.94,11.77-14.75,11.77-14.75s-9.12,3.38-13.74,4.9c-9.59,3.22-19.54,3.3-29.4,6.91-25.29,9.2-51.11,6.48-76.48,13.75-88.19,25.29-174.53,14.94-256.92-22.63a118.69,118.69,0,0,0-13-4.74c1.11-7.51,2.32-15.22,3.65-23.07,10.28.78,20.56,1.25,30.95,1.25,51.36,0,103-1.63,154-5.9,16.11-1.33,34.77-4.27,51-2,5.39.77,28.86.72,25.48-1-18.54-9.32-31.53-24.82-43.14-42.31-1.8-2.72-12.6-18.75-6.85-21.63,13.32-6.68,45.74,18.41,57.84,23.59,45.63,19.63,80.93,10.32,112.77-21.62,6.91-6.93,15.5-6.52,20.59-16.72,13.59-27.26-4.9-94.44-4.9-126.91,0-34.13,15.43-69.09,8.82-102.31-5.25-26.34-16.67-50.43-16.67-77.69,0-11.12,5.5-31.86-3-40.34-18.69-18.75-57.68-18.66-82.36-23.63-10.23-2-21.53-7.54-32.37-3.91-12.85,4.3-14.29,14.34-23.52,23.6-1.63,1.64.42-4.63,1-6.88.69-2.77,1.27-13.19,0-15.74-4.75-9.57-10.31-12.51-20.59-18.69-21.17-12.76-71.53-2.91-88.25-19.66-2.76-2.8,7.85,0,11.77,0h22.56c23.74,0,46.1,7.85,69.62,10.81,52.45,6.57,103.11,24.85,155.9,31.47,13.93,1.75,41.1,5.6,54.92,1,12.13-4,15.51-28.72,19.6-38.34,6-14,67.54-64.11,79.46-65Z"/><path class="cls-52" d="M1032,1611.39c13.46,45.79,46.54,130.09,59.46,155.82s42.83,91,69.31,89,110.74-119.43,132.74-167.11S1385.07,1494,1385.07,1494s-22-39.43-44.44-23.91c0,0-43.29,68.77-83.61,113.94-43.73,49-77.13,112.26-77.13,112.26l-44.2-155.59S1018.53,1565.59,1032,1611.39Z"/><path class="cls-54" d="M1001.9,1602.56c13.46,45.8,56.86,150.66,69.78,176.39s62.62,77.76,89.1,75.71,110.74-117.92,132.74-165.6S1385.07,1494,1385.07,1494s-33.33-49-55.72-33.49c0,0-54.28,72.53-94.6,117.7-43.73,49-70.26,97.14-70.26,97.14l-28.8-134.65S988.43,1556.77,1001.9,1602.56Z"/><path class="cls-61" d="M1257.48,1462.22l121.31-434.6,231.42,156.67ZM1400,1094l-70.34,254.68L1541,1184.91Z"/><path class="cls-62" d="M1602.57,1179.11l7.64,5.18-352.73,277.93,4-14.34Zm-269,155.38-7.47,5.77,70.34-254.67,141,90.94-4.3,3.33L1400,1094Z"/><path class="cls-63" d="M1280.71,1409.4l13.49,3.87a1.24,1.24,0,0,0,1.52-.86,1.25,1.25,0,0,0-.85-1.53l-13.49-3.86a1.24,1.24,0,0,0-.67,2.38Zm10.49-38.8,13.49,3.85a1.24,1.24,0,0,0,1.52-.85,1.26,1.26,0,0,0-.85-1.54l-13.49-3.85a1.24,1.24,0,0,0-1.52.86A1.25,1.25,0,0,0,1291.2,1370.6Zm10.5-38.81,13.48,3.85a1.24,1.24,0,1,0,.67-2.38l-13.48-3.85a1.22,1.22,0,0,0-1.52.84A1.25,1.25,0,0,0,1301.7,1331.79Zm10.49-38.82,13.49,3.87a1.24,1.24,0,0,0,.67-2.39l-13.49-3.85a1.21,1.21,0,0,0-1.52.85A1.24,1.24,0,0,0,1312.19,1293Zm10.5-38.8,13.48,3.85a1.24,1.24,0,0,0,.67-2.39l-13.47-3.85a1.24,1.24,0,1,0-.68,2.39Zm10.49-38.81,13.49,3.85a1.24,1.24,0,0,0,.68-2.38l-13.49-3.86a1.24,1.24,0,0,0-.68,2.39Zm10.49-38.81,13.49,3.86a1.24,1.24,0,0,0,.68-2.39l-13.49-3.85a1.21,1.21,0,0,0-1.52.85A1.24,1.24,0,0,0,1343.67,1176.55Zm10.51-38.82,13.47,3.86a1.24,1.24,0,1,0,.68-2.39l-13.48-3.85a1.22,1.22,0,0,0-1.52.86A1.21,1.21,0,0,0,1354.18,1137.73Zm10.49-38.8,13.49,3.85a1.24,1.24,0,0,0,.67-2.38l-13.49-3.86a1.24,1.24,0,0,0-1.52.85A1.26,1.26,0,0,0,1364.67,1098.93Zm10.49-38.81,13.49,3.85a1.24,1.24,0,0,0,.67-2.38l-13.48-3.86a1.24,1.24,0,0,0-1.53.85A1.26,1.26,0,0,0,1375.16,1060.12Z"/><path class="cls-63" d="M1367.69,1090.68l7.53,2.08a1.23,1.23,0,0,0,.66-2.38l-7.53-2.09a1.24,1.24,0,0,0-1.52.87A1.26,1.26,0,0,0,1367.69,1090.68Zm1.73-7.24,7.52,2.09a1.24,1.24,0,0,0,1.52-.86,1.26,1.26,0,0,0-.87-1.53l-7.52-2.08a1.23,1.23,0,0,0-.65,2.38Zm1.71-7.23,7.53,2.08a1.22,1.22,0,0,0,1.52-.86,1.24,1.24,0,0,0-.86-1.52l-7.53-2.09a1.24,1.24,0,0,0-.66,2.39Zm1.73-7.23,7.52,2.08a1.23,1.23,0,1,0,.65-2.37l-7.52-2.1a1.24,1.24,0,1,0-.65,2.39Z"/><path class="cls-63" d="M1357.77,1129.55l7.53,2.09a1.24,1.24,0,0,0,.66-2.39l-7.53-2.08a1.24,1.24,0,0,0-1.52.86A1.25,1.25,0,0,0,1357.77,1129.55Zm1.73-7.23,7.52,2.08a1.24,1.24,0,0,0,1.52-.86,1.25,1.25,0,0,0-.87-1.52l-7.52-2.09a1.24,1.24,0,0,0-.65,2.39Zm1.71-7.23,7.53,2.08a1.24,1.24,0,0,0,1.52-.86,1.26,1.26,0,0,0-.86-1.53l-7.53-2.08a1.24,1.24,0,0,0-.66,2.39Zm1.73-7.24,7.52,2.08a1.21,1.21,0,0,0,1.51-.86,1.22,1.22,0,0,0-.86-1.51l-7.52-2.09a1.23,1.23,0,1,0-.65,2.38Z"/><path class="cls-63" d="M1347.3,1168.39l7.53,2.08a1.23,1.23,0,0,0,.66-2.38L1348,1166a1.24,1.24,0,0,0-1.52.86A1.27,1.27,0,0,0,1347.3,1168.39Zm1.73-7.24,7.52,2.09a1.24,1.24,0,0,0,1.52-.86,1.26,1.26,0,0,0-.87-1.53l-7.52-2.08a1.23,1.23,0,0,0-.65,2.38Zm1.71-7.23,7.53,2.08a1.23,1.23,0,0,0,1.52-.86,1.24,1.24,0,0,0-.86-1.52l-7.53-2.09a1.24,1.24,0,0,0-.66,2.39Zm1.73-7.24,7.52,2.09a1.23,1.23,0,0,0,.65-2.38l-7.52-2.09a1.25,1.25,0,0,0-1.52.86A1.24,1.24,0,0,0,1352.47,1146.68Z"/><path class="cls-63" d="M1336.83,1207.22l7.53,2.08a1.23,1.23,0,0,0,.66-2.38l-7.53-2.09a1.24,1.24,0,0,0-1.52.87A1.26,1.26,0,0,0,1336.83,1207.22Zm1.73-7.23,7.52,2.08a1.24,1.24,0,0,0,1.52-.86,1.26,1.26,0,0,0-.87-1.53l-7.52-2.08a1.22,1.22,0,0,0-1.51.86A1.24,1.24,0,0,0,1338.56,1200Zm1.71-7.24,7.53,2.08a1.22,1.22,0,0,0,1.52-.86,1.24,1.24,0,0,0-.86-1.52l-7.53-2.08a1.23,1.23,0,1,0-.66,2.38Zm1.73-7.23,7.52,2.08a1.23,1.23,0,0,0,.65-2.37l-7.52-2.1a1.24,1.24,0,1,0-.65,2.39Z"/><path class="cls-63" d="M1326.36,1246.05l7.53,2.09a1.24,1.24,0,0,0,.66-2.39l-7.53-2.08a1.24,1.24,0,0,0-1.52.86A1.25,1.25,0,0,0,1326.36,1246.05Zm1.73-7.23,7.52,2.08a1.23,1.23,0,1,0,.65-2.38l-7.52-2.09a1.23,1.23,0,0,0-1.51.86A1.24,1.24,0,0,0,1328.09,1238.82Zm1.71-7.24,7.53,2.09a1.24,1.24,0,0,0,1.52-.86,1.26,1.26,0,0,0-.86-1.53l-7.53-2.08a1.25,1.25,0,0,0-1.52.86A1.24,1.24,0,0,0,1329.8,1231.58Zm1.73-7.23,7.52,2.08a1.21,1.21,0,0,0,1.51-.86,1.22,1.22,0,0,0-.86-1.51l-7.52-2.1a1.24,1.24,0,0,0-.65,2.39Z"/><path class="cls-63" d="M1315.43,1284l7.53,2.08a1.23,1.23,0,0,0,.66-2.38l-7.53-2.09a1.24,1.24,0,0,0-1.52.86A1.27,1.27,0,0,0,1315.43,1284Zm1.73-7.24,7.52,2.09a1.24,1.24,0,0,0,1.52-.87,1.26,1.26,0,0,0-.87-1.52l-7.52-2.08a1.23,1.23,0,0,0-.65,2.38Zm1.71-7.23,7.53,2.08a1.21,1.21,0,0,0,1.51-.86,1.23,1.23,0,0,0-.85-1.52l-7.53-2.09a1.24,1.24,0,0,0-.66,2.39Zm1.73-7.24,7.52,2.09a1.23,1.23,0,0,0,.65-2.38l-7.52-2.09a1.23,1.23,0,1,0-.65,2.38Z"/><path class="cls-63" d="M1304.5,1322l7.52,2.08a1.24,1.24,0,0,0,.67-2.38l-7.53-2.08a1.23,1.23,0,0,0-1.52.86A1.26,1.26,0,0,0,1304.5,1322Zm1.73-7.23,7.52,2.08a1.24,1.24,0,0,0,1.52-.86,1.27,1.27,0,0,0-.87-1.53l-7.53-2.08a1.24,1.24,0,0,0-.64,2.39Zm1.71-7.24,7.52,2.08a1.21,1.21,0,0,0,1.52-.86,1.24,1.24,0,0,0-.85-1.52l-7.53-2.08a1.23,1.23,0,1,0-.66,2.38Zm1.72-7.23,7.53,2.08a1.23,1.23,0,0,0,.65-2.37l-7.53-2.1a1.24,1.24,0,1,0-.65,2.39Z"/><path class="cls-63" d="M1293.57,1360l7.52,2.09a1.24,1.24,0,0,0,.66-2.39l-7.52-2.08a1.23,1.23,0,0,0-1.52.86A1.25,1.25,0,0,0,1293.57,1360Zm1.72-7.23,7.53,2.08a1.23,1.23,0,1,0,.65-2.38l-7.53-2.09a1.24,1.24,0,0,0-.65,2.39Zm1.72-7.24,7.52,2.09a1.23,1.23,0,0,0,1.52-.86,1.25,1.25,0,0,0-.86-1.53l-7.52-2.08a1.25,1.25,0,0,0-1.52.86A1.23,1.23,0,0,0,1297,1345.53Zm1.72-7.23,7.53,2.08a1.23,1.23,0,1,0,.65-2.37l-7.53-2.09a1.23,1.23,0,1,0-.65,2.38Z"/><path class="cls-63" d="M1282.64,1398l7.52,2.08a1.23,1.23,0,1,0,.66-2.38l-7.52-2.09a1.24,1.24,0,0,0-1.52.86A1.26,1.26,0,0,0,1282.64,1398Zm1.72-7.24,7.53,2.09a1.25,1.25,0,0,0,1.52-.86,1.27,1.27,0,0,0-.87-1.53l-7.53-2.08a1.23,1.23,0,0,0-.65,2.38Zm1.72-7.23,7.52,2.08a1.22,1.22,0,0,0,1.52-.86,1.24,1.24,0,0,0-.86-1.52l-7.52-2.09a1.24,1.24,0,0,0-.66,2.39Zm1.72-7.23,7.53,2.08a1.23,1.23,0,0,0,.65-2.37l-7.53-2.1a1.24,1.24,0,1,0-.65,2.39Z"/><path class="cls-64" d="M1392.5,1164.44l124.56,1.72"/><path class="cls-52" d="M1328.13,1468.62c.22-.07,2.55-44.49,2.55-65.91,0-9.19,8.4-34.19,10.56-43.24,5.88-24.82,34.71-57.25,50-76.72,8.17-10.38,15.69-21.18,23.65-31.71,1-1.27,4.56-10.06,6.59-9.65,4,.8,5,11,5.42,14,.91,7.37-3.6,13.16-4,20.11-.5,7.49,1.71,15.68,3.29,23,1.46,6.76,8.58,12.63,15.43,29.08,3.07,7.35,4.31,35.39,4.11,44-.82,37.65-21.51,69.53-27.93,81.61-4,7.58-33.53,43.59-33.53,43.59s-19.24-10.42-21.49-12.36c-3.85-3.32-8-6.36-11.71-9.86"/><path class="cls-59" d="M1344.69,1349.28c9.81-23,33.28-49.63,46.58-66.53,8.17-10.38,15.69-21.18,23.65-31.71,1-1.27,4.56-10.06,6.59-9.65,4,.8,5,11,5.42,14,.91,7.37-3.6,13.16-4,20.11-.5,7.49,1.71,15.68,3.29,23,1.46,6.76,8.58,12.63,15.43,29.08,3.07,7.35,4.31,35.39,4.11,44-.07,3.39-.3,6.72-.67,10a7.92,7.92,0,0,1-10.37-.82c-2-1.76-3.33-6.3-6.09-6.89-2.16-.46-3.52,1.37-5.48,1.89a12.46,12.46,0,0,1-10-2c-4.89-3.39-6.79-13.45-12.17-15.09-5.19-1.58-10.68,4-16.4,3-8-1.36-9.89-11.37-17.18-12.87s-13.43,7-20.66,2.28A7.78,7.78,0,0,1,1344.69,1349.28Z"/><path class="cls-18" d="M971.53,1549c-1.27,9,8.52,22.68,12.14,30.5,11.13,24.24,20.25,49.55,29.07,74.67,11.64,33.08,23.8,66.38,38.61,98.24,8.9,19.07,20.37,36.9,29.66,55.56,1.6,3.19,3.73,6,5.61,9,4.78,7.68,14.89,36.18,27.41,32,6.2-2,11.56-11.89,15.68-16.83,15.25-18.35,30-36.15,40.84-57.81,9.73-19.52,18.77-34.8,21.26-57.25,3.12-28.15-4-54.21-10.06-78.61-2.46-9.81-14.82-18.66-17.36-31.44-5.55-27.89-15.81-57.06-25.73-83.63-13.4-35.87-21.39-74.47-33.58-111.15-6.72-20.22-12.33-40.48-19-60.61-2.29-6.88-7.21-13.17-9-20.22-1.58-6.26-7.66-22.65-12.88-25.26-9-4.51-23.77,15.39-28,20.22-21.83,25-41.9,47.27-47.56,81.38"/><path class="cls-19" d="M989.75,1402.31c10.47,34.5,15.31,70.65,28,104.7,11.5,30.72,23,61.47,33.36,92.47,9,27.2,28.49,52.32,37.26,78.69,3,9.12-10,32.3-4.92,37.4,2.1,2.08,19.87-24.12,20.59-28.53.11-.55-.06-11.87,1-10.84,13.16,13.2-3,45.42-6.85,59-1.16,4-10,23.35-4.92,21.65,21.86-7.32,21.14-47.05,24.51-63.93,2.77-13.84,11.78-24.32,11.78-39.38,0-11.34-8.32-43-3-40.31,17.16,8.59,3.29,40,9.81,53.12,4.53,9.07,22.36-13.22,24.52-8.87,24,48.22-3.85,119.23-22.42,164-2.9,3.55-5.86,7.1-8.81,10.67-4.12,4.94-9.48,14.78-15.68,16.83-12.52,4.19-22.63-24.31-27.41-32-1.88-3-4-5.8-5.61-9-9.29-18.66-20.76-36.49-29.66-55.56-14.81-31.86-27-65.16-38.61-98.24-8.82-25.12-17.94-50.43-29.07-74.67-3.62-7.82-13.41-21.46-12.14-30.5l17.17-141.26C989,1405.92,989.36,1404.09,989.75,1402.31Z"/><path class="cls-25" d="M1166.85,1613.73c1.71-.86,6.83,12.75,9.45,11.7,13.41-5.41,5.45-1,9.23-2.91,4.4-2.19,10.17,19.21,11.89,22.68s-.06,12.17-.47,15.47c-1.13,9-.33,18.16-1.47,27.12s.17,18.16-1,27.12c-4.45,35.68-12.91,75-30.88,106.47-4.42,7.79-32,32-54.39,34.35-2,.22-30.37-24.84-31-28.06-1.13-5.68-5.91-13.42-.47-18.85,1.08-1.11,4.12,2.3,5.31,2.88a10.46,10.46,0,0,0,11.08-.47c8.85-5.94,13.88-21,19.29-29.53,5.26-8.29,11.39-16.69,15.45-25.65,11.14-24.62,19.49-50.49,26.54-76.5,3.64-13.39,8.79-32,13.12-45.19"/><path class="cls-65" d="M687.27,2689.74l93.67-303.18a67.66,67.66,0,0,1,22.29-32.84A72.79,72.79,0,0,1,840.88,2338l70.67-7.94a38,38,0,0,1,22.81,4.54,35.93,35.93,0,0,1,15.47,16.87l117.93,269.85a8.22,8.22,0,0,0,10.56,4.23,7.64,7.64,0,0,0,4.41-10.13L968.58,2344.12a55.65,55.65,0,0,0-23.68-26.52,59.46,59.46,0,0,0-35.67-7.58l-70.76,7a95.65,95.65,0,0,0-49.75,20,90,90,0,0,0-30.09,43.11L661.1,2682.2a13,13,0,0,0,9.15,16.32A13.78,13.78,0,0,0,687.27,2689.74Z"/><path class="cls-65" d="M442.24,2699.15,573.71,2368c4.93-13.08,15.2-22.08,26.84-30.12s19.4-14,34.79-14.93l94.42-8.29a43.31,43.31,0,0,1,24.44,5.72,37.47,37.47,0,0,1,15.93,17.87l92.08,279.54c1.66,4.1-.22,12.5,4.32,11s6.87-5.95,5.22-10l-88-280.86a58,58,0,0,0-24.35-28.07,67.83,67.83,0,0,0-38.17-9.44l-76.75,3.66a107.16,107.16,0,0,0-54.63,17.81,91.56,91.56,0,0,0-34.47,42.25L425.17,2692.76c-2.66,6.92,1.42,14.53,9.13,17S439.57,2706.07,442.24,2699.15Z"/><path class="cls-66" d="M399.42,1840.61c57.75-24,262.68-30.2,341.22,54.84S846,2070.71,880,2154.89c26,64.42,105.23,122.75,141,146.6a11.85,11.85,0,0,1,5.47,11c-.39,4.31-4.44,6.45-7.39,9.94-19.25,22.76-42.47,71.4-259.06,66.56-191.59-4.27-306.28-110.09-350.38-323.4S341.67,1864.61,399.42,1840.61Z"/><path class="cls-67" d="M581.91,2344.9c-13.09-10.59-23.28-35.12-33.52-48.89-79.46-106.92-6.44-180.58-2.3-287.47,1.12-28.83-1.66-57.76-23.78-79.52-6.16-6.07-50.87-42.26-32.87-51.42,60.57-30.84,133.79-4.45,182.71,32.39C788,1997.18,804,2113.13,872.45,2225.55c18.23,29.93,106.42,91.22,127.2,119.55-41.19,29.33-83.67,46.6-243.47,46.33C688.35,2391.31,630.38,2368.58,581.91,2344.9Z"/><path class="cls-68" d="M368.32,1858.61c4.54-7.17,14.41-11.07,31.1-18,57.75-24,262.68-30.2,341.22,54.84S846,2070.71,880,2154.89c25.86,64,104.21,122,140.3,146.12a12.36,12.36,0,0,1,5.65,11.5,12.73,12.73,0,0,1-7.87,10.3c-.38.17-.77.32-1.17.49-20.68-12.81-124.66-80.09-155.25-155.78-34-84.19-60.84-174.38-139.38-259.43s-283.48-78.85-341.23-54.86C376.28,1855.23,372,1857,368.32,1858.61Z"/><path class="cls-69" d="M379.07,1875c1.79,2.16-1.39,5.45-1,8.17,1.55,10.18,5.58,20,7.48,30.22,6.08,32.5,16,63.71,25.67,95.38,1.11,3.66,13.63,40.21,18.95,39.66,6.4-.67,2.19-34.9,3.8-70.6,1.08-24.56,21.54-79.86,18.66-96.93-4.27-25.21-50.86-18-67.17-12.25"/><rect class="cls-49" x="1447.33" y="2228.55" width="26.49" height="297.65"/><path class="cls-70" d="M2149.36,1992.38l1696.15,262.75L2684.28,2575l-1426-450,889.46-134.09Z"/><path class="cls-71" d="M1263.55,2126l1466.7,428.86,1121.42-302.92-8.09,59.76-1111,340.92L1263.11,2193.19Z"/><path class="cls-72" d="M450.28,2103.35s-105.06,394.61-29,655.08c-31.35,6.78-48.63,0-48.63,0s-45-499.88,77.64-655.08"/><path class="cls-72" d="M256.71,2307.19s96.55,295,94.35,442.44c19.75,55,50.8,0,50.8,0s-29.23-297.16-145.15-442.44"/><path class="cls-73" d="M256.71,2417.25s59,245.65,49.78,366c12.35,45.92,39,2.48,39,2.48s-7.19-244.18-88.82-368.5"/><path class="cls-72" d="M389.88,2701.93S398.6,2582.21,500.29,2497c50.13-42,38.78-74.06,80.07-85.34s101.34-46.45,117.6-62.76,260.49-73.57,323-51c-70.07,17.56-137.58,118.7-172.61,121.21s-80.15,43-130.18,78.17-89.08,13.5-121.6,29.81-151.39,80.38-206.74,174.77"/><path class="cls-74" d="M451.86,2606.14c15.22-19.73,31.38-38.71,47.85-57.28a358.87,358.87,0,0,1,26-26.43,279.27,279.27,0,0,1,29.41-22.24,299.27,299.27,0,0,1,32.09-18.31c11.06-5.55,22.46-10.91,33.19-17.65,10.78-6.51,20.79-14.73,30.13-22.6,9.52-7.44,20.22-13.71,31.07-19.56,43.79-23,90.26-41.15,136.28-59.86l138.74-55c-46.78,16.94-93.8,33.23-140.34,50.89s-93.07,35.51-137.58,58.54c-11.06,5.88-22,12.14-32.14,20-9.77,8.06-19.12,15.6-29.57,22.16-10.3,6.61-21.42,12-32.53,17.65a305.07,305.07,0,0,0-32.54,19c-10.34,7.15-20.55,14.41-29.7,23.26a361.28,361.28,0,0,0-25.5,27.64c-16.2,19-30.7,39.4-44.89,59.88"/><path class="cls-75" d="M568.31,2434.19a252,252,0,0,0-35.66,43.91,154.17,154.17,0,0,0-13.22,25.24,92.5,92.5,0,0,0-7,27.87l-.13,1.75,1.73.27c9.49,1.43,19,2.74,28.57,3.62a261.18,261.18,0,0,0,28.8,1.17,176,176,0,0,0,28.71-2.79c9.34-2.05,18.95-4.63,26.63-10.47-8,5.31-17.64,7.2-27,8.61a176.19,176.19,0,0,1-28.4,1.69c-9.49-.21-19-.71-28.46-1.69s-18.87-2.41-28.27-3.93l1.59,2c1.24-18.4,9.59-35.77,18.93-51.82a263.14,263.14,0,0,1,15.58-23.39,281.78,281.78,0,0,1,17.59-22"/><path class="cls-74" d="M629.49,2402.93c-11.08,10.58-20.21,23.08-28.32,36.1a251.78,251.78,0,0,0-20.24,41.4l-.81,2.08,2.2.43a214.66,214.66,0,0,0,55.65,3.68c18.5-1.48,37.2-5.16,53.69-13.8-17.13,7.07-35.58,9.91-53.87,10.74a235.87,235.87,0,0,1-27.5-.49c-9.15-.77-18.21-2.23-27.25-3.82l1.4,2.51a291.58,291.58,0,0,1,19.15-41.29c7.55-13.18,15.92-26,25.9-37.54"/><path class="cls-74" d="M744.3,2333.81a281.84,281.84,0,0,0-35.24,37.1c-10.6,13.43-19.93,28.12-25.83,44.53l-.77,2.16,2.31.3q25.11,3.33,50.39,4.6c16.85.77,33.72,1.08,50.56.3-16.83-.9-33.62-1.92-50.36-3.35q-25.12-1.92-50.09-5.29l1.53,2.47c5.36-15.89,14.63-30.28,24.51-44a396.48,396.48,0,0,1,33-38.83"/><path class="cls-74" d="M846,2320.41a253.43,253.43,0,0,0-37.69,21.92,128.87,128.87,0,0,0-17,13.94c-5.17,5.21-10.25,10.95-12.75,18.48l-.48,1.46,1.38.7c7.39,3.69,15.16,5.25,22.89,6.62s15.49,2.28,23.25,3a441.88,441.88,0,0,0,46.72,1.42c-15.51-1.34-31-2.66-46.38-4.6-7.7-.91-15.37-2-22.95-3.39s-15.15-3.22-21.81-6.32l.89,2.16c2-6.43,6.69-12.1,11.61-17.16a167.45,167.45,0,0,1,16.22-14.14,378.16,378.16,0,0,1,36.09-24.1"/><path class="cls-76" d="M420.25,2136.4s42.54-163.17,152.64-188.27,145.13-67.78,215.19-90.36,137.61,32.63,137.61,32.63-83.81,1.26-164.51,59.61S529.72,2115.69,420.25,2136.4"/><path class="cls-72" d="M420.25,2136.4s51.84-106.12,161.93-131.23,135.46-87,205.52-109.6,138-5.17,138-5.17-83.81,1.26-164.51,59.61S529.72,2115.69,420.25,2136.4"/><path class="cls-72" d="M97.47,2603.3s-35-71.53-97.58-113-108.85-32-145.13-51.77-127.61-39.85-170.15-26-114.71,15.06-143.68,99.15c28.58-17.57,74.87,5,124.91,22.6s109-17.58,153.36,0,84.36,60.24,131.9,62.76,146.37,6.26,146.37,6.26"/><path class="cls-77" d="M243.22,2603.3s5.64-96-75.06-143.07-157.64-81-189.54-135.56-137-81-238.33-35.76c75.06-3.77,170.77,67.77,272.11,158.14S243.22,2603.3,243.22,2603.3"/><path class="cls-72" d="M243.22,2603.3s5.64-96-75.06-143.07S8.5,2424.89-23.4,2370.3s-135-126.58-236.31-81.39c75.06-3.77,170.77,67.77,272.11,158.14S243.22,2603.3,243.22,2603.3"/><path class="cls-77" d="M312.2,2603.3s-12.85-223.5-107.78-267.21S116,2203,14.2,2155.1-168,2028.72-297.42,2042.44C-181.65,2081-149.67,2135.19-101.25,2200S4,2295.42,24.77,2320.69s84.5,109.81,123.89,123.11,141.11,104.38,163.54,159.5"/><path class="cls-72" d="M312.2,2603.3s-41.37-193-136.3-236.67S93.6,2235.16-8.21,2187.23-168,2028.72-297.42,2042.44C-181.65,2081-149.67,2135.19-101.25,2200S4,2295.42,24.77,2320.69s84.5,109.81,123.89,123.11,141.11,104.38,163.54,159.5"/><path class="cls-77" d="M450.28,2342.24s85.07-107.94,52.54-268.6S460.29,1918,417.74,1845.21s-72.55-163.16-160.13-170.69-75.07-60.25-160.14-20.08c45-2.51,132.62,39.53,132.62,103.54s18.76,109.2,43.16,137.44,15,94.13,41.28,139.31,69.44,171.32,97.59,208,20.64,112,18.77,117.67,19.39-18.2,19.39-18.2"/><path class="cls-77" d="M255.11,2297s47.54-195.75,10-316.24-95.07-133-152.63-198.31S7.39,1744.8,7.39,1744.8,39.92,1790,44.92,1915.5,103.28,2133,182.54,2199.16,255.11,2297,255.11,2297"/><path class="cls-76" d="M462.79,2390.06s60.05-206,180.15-253.66,127.61-27.61,212.69-32.63,187.67,35.15,235.21,72.8c-125.12-37.65-255.23,22.29-337.8,70.14s-290.25,143.35-290.25,143.35"/><path class="cls-72" d="M462.79,2390.06S552.87,2253.63,673,2205.94s109.74-86.33,194.81-91.35,175.52,24.33,223.06,62c-125.12-37.65-255.23,22.29-337.8,70.14s-290.25,143.35-290.25,143.35"/><path class="cls-72" d="M273.66,2304c-18.43-47.44-34.74-96.65-43.79-146.64-1.17-6.25-2-12.52-2.77-18.79s-1.52-13.11-2.84-19.59a157.44,157.44,0,0,0-11.83-38.25c-11.32-24.44-28-44.16-36-68-4.39-11.66-6.56-24.35-10.17-37-3.35-12.57-7.27-24.94-11.38-37.24a656.32,656.32,0,0,0-29-72.12C114.66,1843,102,1820.24,86.42,1799.5c-15.51-20.51-34.19-39.74-57.9-50.3,23.39,11.25,41.32,30.82,56.13,51.6,14.81,21,26.77,43.9,37.2,67.37a650.5,650.5,0,0,1,26.73,72.29c3.72,12.3,7.26,24.66,10.21,37.14,1.62,6.22,2.78,12.46,4.22,18.76l2.24,9.65,2.86,9.53c7.91,25.68,24.68,46.87,34.28,69.62a145.41,145.41,0,0,1,10,35.85c1.08,6.21,1.43,12.32,2.18,18.8s1.3,13.13,2.32,19.61c3.71,26,9.83,51.38,16.67,76.51,7,25.13,14.79,49.81,23.78,74.47Z"/><path class="cls-72" d="M265.49,2040.84q-9.19,31.6-19.13,62.92c-3.45,10.39-6.79,20.81-10.53,31.06s-7.78,20.48-13.16,29.6l3.14-.62q-13.41-9.66-27.09-19c-9.16-6.12-18.29-12.31-27.76-18-18.79-11.5-38.07-22.33-58.33-31,9.83,5,19.3,10.56,28.66,16.3s18.7,11.52,27.86,17.57c18.34,12.07,36.45,24.52,54.09,37.62l2,1.45,1.18-2.07c5.65-9.85,9.46-20.2,13.19-30.56s7-20.86,10-31.44q9.1-31.66,15.92-63.9"/><path class="cls-72" d="M221.61,1940.33c-1.71,21.88-4.56,43.63-8,65.23-3.71,21.56-8,43-14.55,63.84l3-1.3A691.53,691.53,0,0,1,136.91,2032c-10.53-6.56-20.87-13.47-30.71-21s-19.83-15.25-26.48-25.9c6,11.05,15.7,19.51,25.08,27.66,9.66,8,19.84,15.26,30.2,22.23s21.13,13.36,32,19.53,21.86,12.11,33.15,17.47l2.27,1.08.71-2.38a421.47,421.47,0,0,0,13.63-64.62,533.81,533.81,0,0,0,4.87-65.72"/><path class="cls-72" d="M170.41,1861.82a487.24,487.24,0,0,1-.36,56.82c-1.51,18.8-3.84,37.69-10,55.34l3.08-1.16a310.67,310.67,0,0,1-26.43-17.07q-12.73-9.32-24.69-19.68t-23.33-21.39c-7.61-7.33-15.05-14.86-22.09-22.78a366.5,366.5,0,0,0,43.1,46.81c7.78,7.26,16.13,13.87,24.6,20.33A250.33,250.33,0,0,0,161,1976.59l2.27,1.27.8-2.45c6-18.39,8.55-37.53,9.19-56.59a343.3,343.3,0,0,0-2.86-57"/><path class="cls-72" d="M123.61,1804.59a158.48,158.48,0,0,1,3.13,31.06c-.21,10.33-1.38,20.66-5.09,30.12l2.3-1.31a97.27,97.27,0,0,1-18.53-6.09,186.37,186.37,0,0,1-17.78-8.87c-11.75-6.25-23.07-13.37-34.43-20.52a250.91,250.91,0,0,0,32.61,23.72,181.1,181.1,0,0,0,17.93,9.47c6.18,2.81,12.57,5.33,19.51,6.44l1.74.26.56-1.58a78.33,78.33,0,0,0,4.24-31.71,110.37,110.37,0,0,0-6.19-31"/><path class="cls-72" d="M436.76,2367a37.24,37.24,0,0,0,5-6.17c1.34-1.92,2.34-3.86,3.51-5.8a97.17,97.17,0,0,0,5.23-11.85,145.49,145.49,0,0,0,6.62-24.18,257.94,257.94,0,0,0,3.92-48.63c-.13-32.3-4.65-64-10.82-95.24-6.39-31.09-13.24-62.27-25.36-92.18-6-14.89-13.32-29.11-19.91-43.19a239.07,239.07,0,0,1-15.79-43.59,666.88,666.88,0,0,0-26.05-91.22,711,711,0,0,0-37.81-87c-14.65-28-31.38-55-51.51-79.44-20.1-24.22-44-46.08-72.7-59.39,28.35,14,51.62,36.22,71.06,60.73,19.44,24.67,35.44,51.9,49.36,80A704.47,704.47,0,0,1,357.07,1907a641.31,641.31,0,0,1,23.73,91.13,247.84,247.84,0,0,0,15.08,45.64c6.36,14.65,13.11,28.68,18.45,43.22,10.73,29,16.8,59.86,22.51,90.58,5.42,30.72,9.14,61.82,8.61,92.65a242.51,242.51,0,0,1-4.6,45.43,129.16,129.16,0,0,1-6.26,21.25,82.37,82.37,0,0,1-4.5,9.67c-.91,1.41-1.74,3-2.68,4.25a28.65,28.65,0,0,1-2.41,3Z"/><path class="cls-72" d="M480,2015.17q-9.56,35.94-20,71.61c-3.64,11.82-7.1,23.7-11.1,35.38s-8.22,23.43-14.32,33.65l3.16-.55c-16-12.05-31.82-24.35-47.66-36.64l-23.65-18.54c-7.91-6.15-15.79-12.35-23.41-18.88,14.29,14.12,29.52,27.25,45,40.07s31.28,25.16,47.12,37.49l2,1.51,1.21-2.07c6.5-11.16,10.39-23,14.43-34.77,3.84-11.82,7.4-23.73,10.55-35.75q9.6-36,16.75-72.51"/><path class="cls-72" d="M438.21,1931.73c-2.17,21.84-5.47,43.54-9.41,65-4.15,21.48-8.92,42.85-15.88,63.51l3-1.23a693.28,693.28,0,0,1-64.31-37.47c-10.39-6.79-20.58-13.91-30.26-21.66s-19.51-15.67-25.93-26.44c5.78,11.17,15.29,19.83,24.49,28.17,9.5,8.15,19.51,15.67,29.73,22.87s20.83,13.79,31.57,20.2,21.59,12.57,32.77,18.16l2.26,1.13.74-2.36a420.9,420.9,0,0,0,15-64.33,531,531,0,0,0,6.25-65.6"/><path class="cls-72" d="M388.67,1852.17a486.61,486.61,0,0,1-1.56,56.8c-1.9,18.77-4.62,37.6-11.18,55.12L379,1963A314.07,314.07,0,0,1,353,1945.37q-12.52-9.58-24.26-20.19t-22.88-21.88c-7.45-7.49-14.75-15.17-21.61-23.25a366,366,0,0,0,42.11,47.71,315.71,315.71,0,0,0,24.17,20.84,249,249,0,0,0,26.36,18.11l2.25,1.33.85-2.43c6.41-18.26,9.34-37.35,10.37-56.4a343.69,343.69,0,0,0-1.65-57"/><path class="cls-72" d="M343.07,1794a157.84,157.84,0,0,1,2.49,31.12c-.42,10.32-1.81,20.63-5.72,30l2.32-1.26a96.59,96.59,0,0,1-18.39-6.48,187.92,187.92,0,0,1-17.6-9.23c-11.61-6.5-22.78-13.86-34-21.24a250.85,250.85,0,0,0,32.09,24.39,180.91,180.91,0,0,0,17.73,9.85c6.12,2.94,12.47,5.6,19.38,6.84l1.72.31.6-1.57a78.56,78.56,0,0,0,4.91-31.62,109.85,109.85,0,0,0-5.55-31.11"/><path class="cls-72" d="M311.49,2298.16s-83.75-85-107-28.53,74.44,187.23,235,214.06,128,113.2,128,113.2,77.54-56,2.72-203-207.44-156.37-258.61-95.69"/><path class="cls-74" d="M309.64,2302.56a26.57,26.57,0,0,1,9.67.56,64.79,64.79,0,0,1,10.62,3.26,124.72,124.72,0,0,1,20.17,10.9c13,8.52,24.79,18.94,36,30,5.73,5.39,10.88,11.33,16.43,17a174.7,174.7,0,0,0,17.69,16.51c12.55,10.13,26.37,18.41,40.53,25.68,28.14,14.64,58.52,25.56,81.84,47.1a112.52,112.52,0,0,1,27.17,38.26c6.37,14.49,10.24,30,12.46,45.76-1.85-15.77-5.37-31.44-11.44-46.2a114.51,114.51,0,0,0-26.68-39.44c-23.27-22.49-53.81-34.27-81.27-49.4-13.85-7.52-27.18-15.95-39.1-26-12-9.92-21.64-22.4-32.95-33.93-11.12-11.5-23-22.45-36.34-31.69a130.81,130.81,0,0,0-21.33-12.13,71.33,71.33,0,0,0-12-4c-4.35-.91-8.15-1.73-13.89-.66Z"/><path class="cls-74" d="M579.25,2434.6c-6-3.25-12.48-5.34-19-7.28a181.15,181.15,0,0,0-20-4.1,229.25,229.25,0,0,0-40.74-1.83l-3,.1,1.13,2.87c5.21,13.15,10,26.46,14.59,39.85s9,26.85,12.93,40.49c-2.14-14.07-5.73-27.88-9.66-41.54s-8.75-27.08-13.8-40.39l-1.93,3c6.69-.33,13.39-.52,20.08-.37s13.38.58,20.06,1.13c13.3,1.35,26.65,3.49,39.37,8.09"/><path class="cls-74" d="M534.82,2364.42a499.24,499.24,0,0,0-61.5-4,301.26,301.26,0,0,0-30.9,1.52c-10.26,1.12-20.66,2.44-30.59,6.38l-1.46.58.11,1.53c.59,8.76,1.39,17.5,2.65,26.19a202.53,202.53,0,0,0,5.37,25.79,166.54,166.54,0,0,0,8.75,24.82c3.76,7.91,8,15.71,13.77,22.27-5.25-7-8.84-15-11.95-23a182.11,182.11,0,0,1-7.49-24.84c-2-8.42-3.32-17-4.59-25.54s-1.8-17.22-2.26-25.87l-1.35,2.09c9.3-3.42,19.42-5.11,29.47-6.29s20.31-1.72,30.53-2c20.42-.66,40.93-.38,61.44.4"/><path class="cls-74" d="M453.35,2289.58c-8.66-1-17.46,0-26.13.9a233.29,233.29,0,0,0-25.82,4.69c-17.11,3.84-33.64,10-49.62,17.25l-.67.3-.32.67a162.68,162.68,0,0,0-11.27,29.18,153.14,153.14,0,0,0-5.56,30.76c-1.48,20.77.84,42,8.32,61.27a133.8,133.8,0,0,1-5.27-30.33,154.21,154.21,0,0,1,.51-30.61,158.57,158.57,0,0,1,5.94-29.94c2.71-9.84,6.93-19.15,11.13-28.41l-1,1a300.15,300.15,0,0,1,48.58-18c8.33-2.39,16.81-4.23,25.34-5.82s17.16-3.2,25.83-2.84"/><path class="cls-74" d="M322,2295.82a120.1,120.1,0,0,0-26.87,11.69,96.75,96.75,0,0,0-22.77,18.21,65.07,65.07,0,0,0-14.09,25.34c-3.11,9.32-2.47,19.25-1.58,28.77-.53-9.57-.78-19.41,2.64-28.45A63.27,63.27,0,0,1,274,2327.22a94.22,94.22,0,0,1,22.78-16.83,116.59,116.59,0,0,1,26.29-10.29Z"/><path class="cls-73" d="M102,2603.3c-18.66-15.54-37.58-30.89-57.71-44.64-10-6.9-20.25-13.57-31-19.53s-22.26-10.51-33.76-14.63a282.2,282.2,0,0,0-35.41-9.76c-12-2.56-23.87-4.59-35.37-7.78a219.17,219.17,0,0,1-33.63-12.31c-11.2-5.25-23.1-8.91-34.9-12-47.47-11.79-96.3-16.77-145-16.07-24.33.49-48.72,2.3-72.65,7s-47.48,11.82-68.74,23.68c21.68-11.05,45.38-17.2,69.2-21a465.62,465.62,0,0,1,72.23-5.16,654.22,654.22,0,0,1,72.29,4.59,516.15,516.15,0,0,1,71.12,13c11.62,3.14,23,6.73,33.77,11.87a196.59,196.59,0,0,0,34.67,12.63c11.91,3.18,24,5.13,35.77,7.55a277.28,277.28,0,0,1,34.8,9.24A267.89,267.89,0,0,1,11,2543.63c10.68,5.47,21.05,11.75,31.24,18.27,20.28,13.19,40.41,26.82,59.84,41.4"/><path class="cls-73" d="M-55.95,2468.78a281.21,281.21,0,0,1,22.82,16.53,269.55,269.55,0,0,1,21.24,18.38c13.26,13,25.93,27.45,32,44.87l1-2.36c-8.65,4-17.34,7.88-26.2,11.35s-17.88,6.5-27,9.25a177,177,0,0,1-27.82,6c-9.35,1.13-19.13,1.88-28.27-1.08,9,3.58,18.92,3.48,28.45,2.94a173.33,173.33,0,0,0,28.41-5,254.9,254.9,0,0,0,27.44-8.84c9-3.4,17.81-7.21,26.58-11.14l1.59-.72-.59-1.64a92.06,92.06,0,0,0-14.19-25,154.08,154.08,0,0,0-19.46-20.8,251.28,251.28,0,0,0-46.05-32.76"/><path class="cls-78" d="M3697.33,1336.1a55.31,55.31,0,0,0-55.2-55.37H1647.53a55.31,55.31,0,0,0-55.2,55.37v431.77a55.31,55.31,0,0,0,55.2,55.38h1994.6a55.31,55.31,0,0,0,55.2-55.38Z"/><path class="cls-79" d="M1593.63,1324.06H3696a55.3,55.3,0,0,0-53.88-43.33H1647.53A55.31,55.31,0,0,0,1593.63,1324.06Z"/><ellipse class="cls-49" cx="3546.96" cy="1300.18" rx="8.12" ry="8.15"/><ellipse class="cls-49" cx="3586.16" cy="1300.18" rx="8.12" ry="8.15"/><ellipse class="cls-49" cx="3625.35" cy="1300.18" rx="8.12" ry="8.15"/><text class="cls-80" transform="translate(1698.22 1426)">Mass of the bridge deck: 150,000 kilograms</text><text class="cls-80" transform="translate(1698.22 1496.76)">Acceleration due to gravity: 9.81 m/s</text><g class="cls-81"><text class="cls-80" transform="translate(1698.22 1638.28)">Force (F) = Mass (m) * </text><text class="cls-82" transform="translate(2426.3 1638.28)">A</text><text class="cls-80" transform="translate(2475.62 1638.28)">c</text><text class="cls-83" transform="translate(2513.61 1638.28)">celeration (a)</text></g><text class="cls-80" transform="translate(1698.22 1709.04)">Force (F) = 150,000 kg * 9.81 m/s = 1,471,500 Newtons (N)</text></g></g></svg>